<svg xmlns="http://www.w3.org/2000/svg" width="203.295" height="278.882"><path d="M68.828 278.789c-3.17-.363-4.32-1.341-4.218-3.593.03-.679.148-1.234.261-1.234.113 0 .329.509.48 1.13.15.623.454 1.326.675 1.564.806.867 4.757 1.02 9.637.372 1.434-.19 5.276-1.308 7.031-2.046 2.187-.92 3.863-2.205 3.863-2.963 0-.596-.311-.522-.822.196-.242.34-.549.617-.682.617-.134 0-.798.262-1.477.582-.678.32-2.158.796-3.288 1.056-1.131.261-2.222.56-2.425.664-.727.372-2.769.571-6.142.597-2.965.023-3.534-.025-4.211-.357-1.642-.805-2.065-2.363-1.404-5.167.363-1.538 1.003-2.857 2.49-5.124.608-.927 1.106-1.743 1.106-1.813 0-.07.26-.515.58-.987.919-1.36 2.742-5.058 2.604-5.282-.069-.111-.432-.203-.808-.203-.65 0-1.345-.471-.999-.677.09-.054.652-.164 1.249-.244.596-.08 1.212-.275 1.37-.431.156-.157.531-1.027.833-1.933l.549-1.648-.401-.668c-.576-.959-.666-1.716-.449-3.778.106-1.003.252-3.14.324-4.75.108-2.416.077-3.01-.177-3.398-.17-.259-.424-1.485-.565-2.726-.543-4.778.323-13.116 2.253-21.68.319-1.413.788-3.54 1.043-4.727.255-1.187.833-3.176 1.285-4.42a573.995 573.995 0 001.294-3.597c.26-.735.628-1.752.818-2.261 1.288-3.449 2.601-7.378 2.61-7.812.01-.446-1.524-3.424-2.223-4.316-.133-.17-.3-.693-.371-1.164-.071-.47-.464-1.488-.872-2.26-1.183-2.242-1.246-2.369-1.808-3.693-.294-.693-.534-1.402-.534-1.577 0-.175-.517-1.597-1.149-3.16-1.178-2.914-2.796-7.624-3.06-8.907-.325-1.58-1.863-5.64-2.402-6.345-.24-.313-.33-.664-.25-.98.068-.27.033-.606-.078-.745-.11-.14-.365-.763-.566-1.385-.331-1.028-.732-1.953-2.316-5.345-.518-1.108-1.272-3.08-2.207-5.77-.32-.92-.51-2.065-.597-3.597-.07-1.235-.177-2.801-.236-3.48-.107-1.214-.353-10.359-.32-11.878.01-.429-.212-1.463-.492-2.298-.316-.94-.51-1.985-.51-2.742 0-1.818-.862-2.347-1.142-.7-.072.42-.21 1.04-.305 1.38-.342 1.206-1.211 7.718-1.249 9.352-.014.622.227 2.333.537 3.803.7 3.324.79 4.634.392 5.73-.456 1.254-.858 2.69-1.302 4.65-.447 1.97-.647 2.635-1.137 3.774-.28.654-.316 1.17-.198 2.93.183 2.733-.107 3.567-2.3 6.604-.338.469-.773 2.572-1.517 7.35-.23 1.47-.518 3.182-.642 3.803a103.4 103.4 0 00-.37 1.962c-.177 1.019-1.4 2.907-2.319 3.583-.373.275-.864.735-1.09 1.023-.226.288-.85.952-1.387 1.475-.537.523-.977 1.048-.977 1.168 0 .12-.28.67-.624 1.222-.43.692-.687 1.449-.823 2.43-.109.782-.3 2.053-.424 2.823s-.255 1.787-.292 2.26c-.036.475-.196 1.964-.355 3.31l-.29 2.446-.806.683c-1.717 1.457-1.76 1.51-1.618 1.954.16.504.676 3.2.845 4.419.161 1.153-.212 2.162-1.104 2.985-2.458 2.269-2.32 2.063-2.32 3.462 0 1.59-.465 2.47-1.882 3.56-.838.643-1.009.882-.957 1.335.052.448.182.563.68.608.935.083 2.365.491 2.365.674 0 .09.485.32 1.079.513s1.38.576 1.75.851c.836.625 1.365 1.787 1.066 2.345-.244.456-.422.472-1.853.165-.817-.176-1.172-.169-1.542.029-.4.214-.66.192-1.562-.132-.596-.214-1.04-.482-.987-.595.086-.185.281-.223 1.462-.29.49-.027.628-.581.3-1.209-.23-.436-.569-.616-1.695-.9-1.422-.36-2.076-.24-1.554.282.269.268.343 1.399.093 1.397-.085 0-.302-.261-.482-.579-.449-.788-1.702-1.36-2.998-1.37-1.264-.009-1.456-.148-1.105-.804.206-.385.211-.649.023-1.22-.395-1.197-.974-1.782-1.762-1.782-1.268 0-1.553 1.165-.63 2.573.167.256.504 1.082.747 1.835.373 1.154.568 1.449 1.24 1.873 1.003.633 1.957.668 2.144.08.12-.38.273-.418 1.454-.36 1.264.06 1.332.09 1.64.74.457.962.32 1.388-.43 1.34-3.794-.242-4.806-.493-5.238-1.3-.326-.608-.609-.508-1.535.545-.924 1.05-1.401 1.1-1.961.207-.375-.598-1.473-1.958-2.555-3.164-.69-.769-.833-1.091-.962-2.173-.154-1.289.083-5.458.378-6.65.089-.359.656-1.515 1.26-2.57 1.892-3.297 3.882-6.96 5.177-9.526l1.245-2.47-.241-1.538c-.257-1.637-.187-4.461.253-10.197.245-3.2.238-3.368-.197-4.864-.247-.853-.45-1.921-.45-2.375 0-.58-.153-1.005-.517-1.438-.95-1.13-1.075-1.751-1.021-5.07l.087-5.242c.02-1.187.131-2.71.247-3.386.116-.675.24-1.924.275-2.775.036-.85.163-1.963.282-2.472.12-.509.222-1.623.227-2.477.005-.853.11-1.653.235-1.777.308-.31 1.251-4.794 1.352-6.435.069-1.117.007-1.454-.376-2.055-.798-1.256-1.202-2.129-1.202-2.6 0-.251-.088-.69-.197-.974-.197-.519-.156-.724.717-3.62.772-2.565.923-3.644.695-4.986-.285-1.682-.572-8.36-.382-8.893.082-.228.208-1.362.281-2.52.073-1.157.18-2.226.237-2.376.058-.15.017-.503-.091-.786-.186-.488.15-2.886.805-5.74.12-.518.256-1.76.305-2.76.05-1.001.184-1.914.299-2.03.115-.114.209-.558.209-.986 0-.428.273-2.144.607-3.813.354-1.765.657-4.058.725-5.478.064-1.344.161-2.516.216-2.604.054-.088-.003-.637-.128-1.218-.17-.799-.166-1.204.021-1.655.136-.329.265-1.086.286-1.683.022-.598.15-1.288.287-1.535.136-.247.247-.713.247-1.036 0-.323.191-.953.425-1.4.234-.449.594-1.231.801-1.74.882-2.17 5.38-10.953 5.85-11.422.163-.164.358-.505.433-.759.212-.715 1.143-2.687 1.43-3.03.143-.17.368-.648.5-1.063.134-.415.377-.866.54-1.002.165-.135.299-.49.3-.787 0-.297.185-.843.41-1.213.226-.37.41-.908.41-1.196 0-.287.232-.825.515-1.196.282-.37.514-.811.514-.98 0-.168.3-.644.668-1.056 1.62-1.82 4.273-4.647 5.55-5.912.763-.756 1.387-1.438 1.387-1.514 0-.215-1.946-4.622-2.547-5.767-.496-.946-2.284-2.98-2.618-2.98-.253 0-2.839-4.024-3.147-4.896-.163-.464-.397-1.562-.52-2.44-.121-.88-.404-1.976-.628-2.438-.548-1.132-.522-1.257.32-1.535.4-.132.863-.448 1.03-.702.277-.423.24-.627-.435-2.397-.407-1.064-.77-2.12-.81-2.345-.196-1.145-.546-3.598-.625-4.378-.048-.486-.172-1.04-.274-1.233-.103-.193-.25-.952-.327-1.687-.162-1.54.049-2.275.915-3.186.534-.562 2.045-4.086 2.352-5.484.066-.303.259-.69.428-.859.17-.17.308-.4.308-.513 0-.526.68-.877 1.444-.748 1.35.228 2.27-.184 3.894-1.742.822-.788 1.691-1.49 1.932-1.56.241-.071.809-.301 1.26-.512C60.119.324 61.708.023 63.844.067c5.65.117 6.808.112 7.095-.025.355-.17 2.13.204 2.823.595.255.144.463.388.463.543 0 .35 1.512 1.247 2.443 1.448 1.704.368 2.759 1.338 3.801 3.497.164.34.538.894.833 1.234.507.584.995 1.862.923 2.417a3.257 3.257 0 00.57 2.333l.555.8-.016 4.26c-.011 2.944.055 4.316.216 4.442.128.1.497.246.82.323 1.485.355 1.849 1.035 1.289 2.409-.16.393-.295 1.526-.312 2.617-.04 2.62-.55 5.669-1.16 6.935-.28.577-.507 1.155-.507 1.285 0 .164.712.24 2.313.245 6.972.026 13.112.19 13.926.373.509.114 2.174.27 3.7.349 3.209.164 3.153.158 5.858.588 2.03.323 3.642.793 4.184 1.22.153.12.354.419.447.662.117.308.471.519 1.16.692 1.73.434 3.589 1.273 4.672 2.108.577.444 1.719 1.32 2.539 1.944.82.625 1.49 1.246 1.49 1.38 0 .135.26.474.579.753.318.28 1.312 1.167 2.21 1.972.896.804 2.017 1.703 2.49 1.997.472.294 1.027.783 1.233 1.085.205.303.891 1.116 1.523 1.806.632.69 1.46 1.717 1.842 2.282.381.565 1.483 1.984 2.448 3.153 1.927 2.334 2.763 3.503 3.197 4.472.25.56.547.73 2.445 1.398 2.92 1.03 7.11 3.557 7.11 4.288 0 .1.128.31.283.465.262.261.777 1.722 1.651 4.677.232.784.307 1.485.22 2.067-.153 1.014-.04 1.157 1.34 1.696.902.352 2.332 1.31 2.806 1.88.947 1.136 2.328 2.687 3.13 3.514.523.54 1.413 1.665 1.979 2.5.565.836 1.373 1.895 1.796 2.354.422.46.77.897.77.971.002.074.42.646.928 1.27.509.625.925 1.2.925 1.278 0 .077.637.986 1.416 2.018.78 1.032 1.599 2.293 1.822 2.801.223.51.632 1.166.909 1.46.949 1.005 2.944 4.567 3.132 5.59.157.858 1.048 1.582 1.947 1.583.291 0 .761.289 1.161.713.603.64.672.837.672 1.93 0 .744.144 1.526.371 2.011.578 1.236 1.74 3.187 2.37 3.98.313.396.716 1.043.895 1.439.178.396.483.956.677 1.246l1.432 2.134c1.057 1.572 1.286 2.223.874 2.478-.687.425.3 1.178 1.894 1.445 1.145.192 4.963 2.23 5.386 2.875.18.275.786.697 1.345.938.919.395 1.09.58 1.764 1.907.77 1.517 1.604 2.639 3.121 4.2.483.497.879.986.879 1.087 0 .101.367.427.815.724.449.297.878.737.953.979.075.242.196.486.268.542.514.403 2.286 3.832 2.656 5.14.597 2.113.93 3.006 1.295 3.47.53.676.486 1.051-.124 1.051-.308 0-.635-.19-.825-.482-.398-.607-1.256-2.783-1.45-3.674a9.655 9.655 0 00-.507-1.496 77.147 77.147 0 01-.95-2.335c-.54-1.385-.94-1.906-1.235-1.61-.063.062.027.374.2.693.701 1.292 1.336 2.901 1.555 3.943.244 1.16 1.179 3.693 1.485 4.026.341.37.187 1.123-.282 1.377-1.051.569-2.64-.017-3.629-1.339-.797-1.065-2.11-2.186-2.561-2.186-.168 0-.573.225-.9.5-.78.657-1.415.799-2.488.558-1.378-.31-4.253-2.514-5.317-4.075-.638-.936-1.303-1.518-2.852-2.492-.819-.515-1.272-.658-2.082-.658-1.77 0-3.296-.731-4.717-2.26-1.748-1.882-2.189-2.684-2.814-5.128-.687-2.684-.951-3.127-1.768-2.963-.803.16-1.856-.498-2.846-1.78a173.238 173.238 0 00-2.368-2.948c-1.517-1.851-1.672-1.978-2.775-2.278a14.996 14.996 0 01-2.298-.884c-1.143-.573-1.555-1.115-1.99-2.622l-.18-.617h-2.769c-3.893 0-4.149-.139-8.05-4.365-1.646-1.782-3.36-3.703-3.81-4.268-.45-.566-1.77-2-2.93-3.186-1.162-1.187-2.628-2.852-3.258-3.7-.63-.848-1.258-1.634-1.396-1.748-.221-.18-2.157-2.557-3.84-4.713-.432-.553-1.358-1.128-3.7-2.296-3.773-1.882-6.065-3.548-5.568-4.045.128-.128 1.795.498 3.163 1.187.509.256 1.295.582 1.747.724 1.605.504 3.598 1.73 3.598 2.213 0 .11 1.075 1.297 2.39 2.64 1.315 1.342 2.915 3.088 3.556 3.88.642.79 1.532 1.811 1.978 2.267 1.673 1.708 5.66 6.023 6.242 6.755.332.418 2.02 2.246 3.753 4.062l3.15 3.302 1.85-.13a71.024 71.024 0 003.629-.368c1.582-.21 1.838-.198 2.312.113.719.47.702 1.117-.031 1.278-.96.21-1.08.273-1.08.565 0 .482.674.92 1.748 1.136.565.114 1.576.345 2.248.513 1.311.33 1.763.23 4.137-.903.46-.22.901-.4.981-.4.214 0 3.419-1.857 4.196-2.432.803-.593.816-.723.154-1.51-.72-.856-.816-1.444-.504-3.097.254-1.347.247-1.459-.114-1.723-.212-.155-.684-.282-1.05-.282-1.44 0-2.42-1.131-6.327-7.313-.863-1.365-1.961-2.955-2.44-3.532-.479-.577-1.472-2-2.206-3.163-.735-1.162-1.66-2.486-2.056-2.942a22.707 22.707 0 01-1.22-1.55c-.48-.688-.91-1.214-4.785-5.846-.94-1.125-2.31-2.554-3.042-3.177-1.602-1.36-1.72-1.797-.46-1.703 1.063.08 1.149-.253.17-.662-.387-.161-.852-.521-1.034-.8-.309-.47-.303-.578.086-1.566.63-1.597.553-1.873-.294-1.052-.864.838-.89.789-.973-1.873-.05-1.635-.134-2.065-.473-2.448-.456-.516-4.055-2.289-5.35-2.636-1.064-.285-4.527-1.785-5.219-2.26a7.152 7.152 0 00-1.165-.618c-.844-.336-2.346-1.914-4.325-4.547-1.97-2.62-2.636-3.661-3.881-6.064-.807-1.557-1.208-2.067-2.534-3.218-.867-.753-2.857-2.51-4.423-3.906-3.418-3.046-3.929-3.414-4.861-3.499-.677-.062-.723-.027-.784.602-.04.42.128 1.031.451 1.644 1.455 2.757 2.67 6.396 3.211 9.61.133.792.381 2.04.551 2.775.17.735.35 1.799.401 2.364.05.566.181 1.472.29 2.015.108.542.197 1.606.197 2.363 0 1.74.48 4.304 1.105 5.9.563 1.44 1.545 4.485 2.152 6.68.235.848.61 2.19.835 2.981.224.791.514 2.04.644 2.775.13.735.282 1.573.337 1.862.064.332-.021.626-.231.8-.282.235-.4.215-.789-.13-.25-.222-1.002-.758-1.668-1.191-.929-.602-1.29-.738-1.542-.578-.38.24-.456 1.52-.205 3.45.141 1.086.258 1.32.97 1.954 1.479 1.315 1.716 2.49 1.055 5.241-.563 2.342-.43 3.825.535 6.008.283.641.663 1.813.842 2.604l.327 1.438-.642.573c-.799.714-.804 1.161-.034 2.79.648 1.37.737 1.433 2.784 2 .678.187 1.445.426 1.705.532.26.105.785.191 1.166.191 1.05 0 1.867.792 2.067 2 .089.54.171 2.785.183 4.99.024 4.364.246 6.078 1.146 8.838.314.96.687 2.533.83 3.494.142.961.346 1.979.454 2.261.328.857.773 5.173.647 6.27-.212 1.848-1.294 5.545-2.444 8.345-.62 1.51-1.37 3.58-1.666 4.6-.296 1.02-.71 2.178-.92 2.574-.51.963-1.216 3.064-1.216 3.617 0 .245-.283 1.358-.63 2.474-.76 2.452-1.122 3.659-2.46 8.195-.566 1.922-1.203 3.91-1.415 4.42-.212.508-.712 1.942-1.11 3.186-.942 2.937-1.374 4.134-2.725 7.546-.613 1.55-1.115 2.867-1.115 2.926 0 .06-.463 1.09-1.028 2.292-1.122 2.385-1.162 2.58-.745 3.604.325.795.614 2.452.591 3.386-.009.351-.258 1.625-.554 2.83-.296 1.205-.558 2.527-.583 2.937l-.045.746 2.57.06c2.88.065 4.628.344 5.157.822.195.177.465.616.6.975.135.36.323.838.42 1.064.483 1.14 1.085 4.529 1.287 7.246.099 1.324-.12 1.561-1.148 1.246-1.46-.449-1.792.488-1.271 3.59.3 1.787.471 2.275 1.144 3.267.986 1.45 1.859 2.109 2.563 1.932.667-.167 2.242.525 3.112 1.367 1.143 1.106 1.404 2.944 1.673 11.774.159 5.238-.017 9.35-.475 11.077-.703 2.659-2.173 4.542-3.514 4.503-.566-.016-2.701-.93-2.97-1.272-.057-.072-.685-.592-1.395-1.155-1.842-1.462-4.129-5.193-4.887-7.973-.16-.588-.488-1.809-.727-2.713-.473-1.786-.54-1.893-3.17-5.054-.978-1.177-2.15-2.811-2.602-3.63-.453-.82-.881-1.49-.951-1.49-.07 0-.317.233-.547.518l-.419.52-1.07-.724c-.588-.398-1.328-1.06-1.644-1.47-1.388-1.8-1.448-1.852-1.779-1.517-.4.404-2.244 4.09-2.811 5.617-.616 1.656-3.276 6.472-4.511 8.166-.503.69-.51.765-.571 5.431-.053 4.009-.111 4.77-.384 4.976-.577.434-1.301-.058-1.307-.887-.003-.487-.754-1.183-3.087-2.863-1.545-1.112-2.15-1.302-2.891-.905-.654.35-.462.755.784 1.658.65.471 1.698 1.254 2.328 1.74.63.485 1.717 1.217 2.415 1.626 1.6.937 1.623 1.259.233 3.164-1.182 1.62-3.886 3.817-5.854 4.757-1.97.94-2.035 1.06-1.676 3.14.17.987.584 2.336.953 3.11l.652 1.366-.46 3.54c-.252 1.946-.554 3.662-.67 3.813-.141.185-.45.235-.941.152-1.534-.259-1.55-.256-1.62.358-.036.318.092.82.285 1.113.21.321.35.94.35 1.543 0 .89-.091 1.102-.78 1.807-1.457 1.492-6.703 3.262-11.196 3.778-1.96.225-4.999.28-6.424.118zm7.246-5.133c2.384-.38 5.66-1.358 7.097-2.117.336-.177.912-.601 1.279-.942.593-.55.668-.743.668-1.719 0-.604.139-1.632.308-2.283.35-1.338.4-2.964.106-3.424-.394-.618-.88.117-1.639 2.474-.745 2.315-1.528 4.103-1.798 4.103-.075 0-.343-.194-.596-.432-.495-.464-2.417-.768-2.634-.417-.257.417.16.856.931.98.758.12 1.053.51.6.79-.731.453-5.751 1.41-8.55 1.632-1.38.11-1.495.084-2.302-.51-.467-.343-.904-.799-.972-1.013-.135-.424.493-1.82 1.012-2.25.178-.148.323-.49.323-.76 0-.619.86-1.03 2.524-1.211l1.189-.129-.134-.715-.134-.715 2.234.063c2.074.058 2.235.034 2.235-.325 0-.334-.191-.396-1.4-.457-.77-.04-1.486-.125-1.593-.19-.324-.201-.219-1.029.32-2.524.283-.784.515-1.545.515-1.692 0-.147.13-.413.287-.592.159-.178.54-.78.849-1.336.534-.964.543-1.024.187-1.284-.444-.325-.963-.343-1.94-.07-.651.182-.811.391-1.69 2.209-1.446 2.988-3.404 6.637-3.942 7.344-.73.96-1.144 1.862-1.684 3.666-.588 1.966-.622 2.82-.135 3.42.3.372.694.477 2.396.638 1.12.106 2.084.24 2.143.3.06.059.392.06.739.003.347-.058 1.788-.29 3.2-.515zm11.82-6.169c0-.643-.63-.811-.819-.219-.17.534.038.878.478.793.207-.04.34-.264.34-.574zm-7.41-1.182c.13-1.43 1.126-4.896 1.806-6.285.56-1.143.421-1.826-.422-2.066-.563-.161-.744-.127-1.052.199-.447.473-1.423 3.09-1.67 4.473a15.09 15.09 0 01-.407 1.697c-.127.384-.169.983-.093 1.33.106.482.05.695-.24.907-.44.322-.296.525.612.86 1.252.463 1.328.405 1.466-1.115zm-2.926-2.806c.097-.148-.141-.248-.696-.29-.863-.066-1.348.172-1.116.547.16.26 1.607.054 1.812-.257zm.727-1.423c.167-.168.241-.406.165-.53-.148-.24-1.712-.31-2.257-.1-.386.148-.433.82-.068.982.44.196 1.84-.033 2.16-.352zm.68-1.585c.44-.236.544-1.005.14-1.048-1.515-.163-3.104.438-2.736 1.035.177.286 2.068.296 2.596.013zm1.034-1.97c.197-.237.15-.399-.241-.814-.411-.438-.44-.549-.185-.71.167-.106.743-.194 1.28-.195 1.054-.003 1.342-.41.579-.819-.99-.53-2.48.159-2.48 1.145 0 .278-.116.536-.257.574-1.121.298-1.496.488-1.554.789-.057.299.122.346 1.273.338.905-.007 1.419-.107 1.585-.307zm5.959-2.181h.982l.116-1.364c.17-2.002.545-4.398.748-4.78.098-.183.119-.39.048-.462-.203-.202-1.208-.153-1.847.09-.318.122-1.272.314-2.12.428-.848.113-2.097.29-2.775.394-.679.103-1.372.19-1.542.192-.17.003-.9.007-1.625.01s-1.388.049-1.475.102c-.086.054-.218.397-.292.763-.075.367-.367 1.333-.65 2.148-.283.816-.455 1.579-.382 1.696.202.327.864.256 1.73-.186.436-.223 1.414-.45 2.202-.514.78-.062 1.74-.205 2.135-.319.395-.113.744-.206.775-.206.031 0 .003.214-.063.475-.09.36-.003.535.356.718.261.134.797.428 1.19.655.411.237.882.358 1.11.286.218-.07.838-.126 1.379-.126zm-7.418-.364c0-.113-.138-.205-.308-.205-.17 0-.308.092-.308.205 0 .113.138.206.308.206.17 0 .308-.093.308-.206zm-1.085-6.064c.064-.583-1.105-1.48-1.56-1.196-.527.33-.521 1.012.013 1.389.635.448 1.488.342 1.547-.193zm2.678-.026c.626-.168.583-.608-.102-1.04-.311-.195-1.225-.845-2.032-1.443-1.623-1.204-2.13-1.348-2.13-.605 0 .335.388.824 1.265 1.593 1.83 1.605 2.095 1.737 3 1.495zm3.31-.508c.356-.124.647-.356.647-.516 0-.16-.532-.63-1.182-1.044a51.837 51.837 0 01-2.639-1.848c-1.277-.959-1.576-1.094-2.421-1.094-1.21 0-1.429.399-.612 1.118.322.282.668.517.77.52.18.006.96.556 2.957 2.084 1.378 1.053 1.545 1.106 2.48.78zm3.466-1.213c.03-.185-.585-.718-1.538-1.336a59.137 59.137 0 01-2.615-1.798c-.566-.423-1.23-.77-1.475-.77-.64-.003-1.096.208-1.096.502 0 .234 2.821 2.327 4.522 3.355.833.503 2.128.531 2.202.047zm2.95-.418c.219-.117.395-.325.392-.463-.007-.29-1.374-1.343-2.563-1.975a20.233 20.233 0 01-1.845-1.171c-.818-.586-1.146-.709-1.638-.61-1.234.246-1.151.72.293 1.678.398.263 1.461.99 2.364 1.616 1.64 1.137 2.25 1.325 2.997.925zm3.424-.84c.37-.37.082-.768-1.156-1.59a275.221 275.221 0 01-3.044-2.047c-.759-.517-1.947-.59-2.318-.144-.32.385.346 1.004 2.978 2.769 1.881 1.26 2.978 1.574 3.54 1.012zm35.66-1.054c.553-.594 1.13-1.367 1.282-1.719.416-.964.763-5.827.76-10.666-.002-7.126-.245-9.591-1.122-11.392-.272-.558-1.748-1.707-1.996-1.554-.089.055.027.49.258.968.933 1.931 1.158 2.644 1.277 4.04.069.803.23 1.716.357 2.027.327.802.294 12.896-.04 14.884-.248 1.466-.642 2.15-2.207 3.834-.278.3-.169.657.2.657.124 0 .678-.486 1.231-1.08zm-2.694-.682c.809-.56 1.164-1.525.888-2.41-.22-.704-.492-.76-1.45-.294-.489.237-.915.39-.948.341-1.984-2.983-2.967-4.814-3.137-5.846a14.009 14.009 0 00-.342-1.498c-.261-.854.07-1.409 1.38-2.31.824-.567.932-.727.877-1.297-.095-.979-.733-.864-1.386.249-.357.609-.842 1.063-1.503 1.41-1.097.573-1.183.872-.677 2.364.166.486.408 1.391.54 2.011.295 1.387 1.606 4.478 2.361 5.568.655.944 2.037 2.24 2.39 2.24.135 0 .588-.238 1.007-.528zm-49.42-1.446c.146-.379-.351-.774-.627-.498-.224.224-.018.827.283.827.12 0 .275-.148.345-.329zm19.349-.636c.088-.887-.947-1.754-1.99-1.666-.468.039-.758.176-.787.37-.048.325 2.157 2.058 2.509 1.971.113-.027.233-.331.268-.675zm-16.279.312c.09-.145-.133-.483-.553-.841-1.14-.972-2.712-1.99-2.896-1.876-.094.058-.17.4-.168.761.003.55.173.78 1.054 1.427 1.076.79 2.252 1.032 2.563.529zm3.158-.676c.31-.373-.073-.747-2.975-2.91-3.934-2.933-3.824-2.868-4.151-2.422-.592.81-.265 1.352 1.563 2.597.951.647 1.946 1.38 2.212 1.63 1.277 1.2 2.843 1.716 3.35 1.105zm3.243-.518c.555-.006.209-.643-.753-1.383-3.322-2.56-5.887-4.517-6.264-4.779-.24-.165-.98-.747-1.646-1.294-1.367-1.121-1.842-1.177-1.934-.228-.07.716.397 1.174 3.968 3.888 3.887 2.954 5.52 4.027 5.954 3.911.23-.062.534-.114.675-.115zm3.426-.744c.575-.22.35-.86-.513-1.455a52.027 52.027 0 01-1.901-1.404c-1.522-1.182-2.692-1.95-2.971-1.95-.133 0-.389.225-.569.5-.463.706-.195 1.083 1.547 2.174.81.508 1.845 1.224 2.3 1.591.798.645 1.423.806 2.107.544zm3.552-.833c.152-.394-.045-.569-3.432-3.043-1.3-.95-2.696-1.988-3.102-2.307-.842-.661-1.185-.718-1.482-.247-.347.55-.05.905 1.823 2.164.985.662 2.217 1.586 2.738 2.053 1.785 1.6 3.16 2.148 3.455 1.38zm2.529-.61c0-.755-.308-1.521-.706-1.759-.13-.077-1.04-.77-2.024-1.542-3.457-2.71-4.78-3.7-5.457-4.09l-.685-.394-.394.485c-.617.758-.489 1.167.581 1.853.537.345 1.948 1.377 3.135 2.295 1.187.918 2.598 2.005 3.135 2.416.537.41.976.817.976.902 0 .214 1.093.769 1.284.65.085-.052.155-.42.155-.816zm-.411-3.648c0-.765.114-.665-3.803-3.304-1.47-.99-2.872-1.985-3.116-2.21-.539-.495-1.2-.417-1.2.142 0 .268.494.753 1.465 1.436a95.92 95.92 0 013.05 2.265c.87.679 1.892 1.438 2.268 1.688.377.25.746.553.82.672.234.38.516.003.516-.689zm-12.226.267c.195-.615-.048-1.378-.522-1.631-.334-.18-.544-.114-1.137.354l-.727.573.67.565c.803.68 1.526.738 1.716.14zm45.736-.923c.31-.816.237-6.434-.118-8.994-.419-3.026-.864-3.99-2.4-5.197-2.994-2.351-3.683-3.631-4.267-7.93-.22-1.62-.426-3.313-.458-3.766-.078-1.08-.592-1.111-.843-.051-.1.424-.279.77-.397.77-.37 0-2.41-1.442-2.729-1.93-.167-.255-.412-1.452-.544-2.66-.263-2.407-.641-3.302-1.54-3.644-.716-.272-.87-.102-1.443 1.6-.41 1.215-.428 1.415-.162 1.709.463.511.363.813-.315.948-.767.154-.805.645-.103 1.306.848.796.522 1.47-.336.694-.401-.363-1.085-.234-.95.18.045.14.436.425.869.632l.786.375-.13 1.886c-.133 1.96-.69 5.105-1.277 7.23a90.315 90.315 0 00-.653 2.532c-.31 1.297-.31 1.3.204 1.85.284.303.667.828.853 1.168.185.339.567.986.85 1.439.282.452.567.937.633 1.079.184.392.858.306 1.097-.141.314-.587.267-.745-.301-1.004-.629-.286-.65-.58-.078-1.044.372-.301.414-.48.288-1.229-.179-1.057-.577-1.263-1.238-.642-.561.527-1.13.429-1.13-.196 0-.478.981-1.973 1.438-2.192.17-.081.817-.202 1.44-.267l1.13-.12.064-1.13c.097-1.702-.311-6.309-.76-8.577-.5-2.52-.75-4.964-.48-4.682.243.254.953 2.655 1.277 4.317.132.678.323 1.612.424 2.076.161.737.81 4.837.81 5.117 0 .057.118.104.26.104.143 0 .373-.474.51-1.053.424-1.782.963-2.12 1.187-.746.27 1.654 1.132 4.327 1.74 5.389.601 1.052 2.455 2.98 3.551 3.695.397.259.652.686.852 1.424.516 1.907.923 4.514 1.048 6.708.18 3.143.253 3.494.734 3.494.248 0 .485-.206.607-.527zM84.083 234.2c.321-.6.27-.76-.455-1.441-.838-.786-1.067-.786-1.392-.002-.24.58-.216.672.322 1.233.672.701 1.221.777 1.525.21zm-5.65-.416c.215-.35-.569-2.354-1.149-2.938-.562-.565-1.32-.75-1.451-.356-.039.115-.037.63.005 1.144.067.841.17 1.006 1.029 1.636.991.728 1.359.848 1.566.514zm16.604-.185c.186-.712-.388-1.56-1.616-2.385-.666-.447-1.594-1.156-2.061-1.575a15.771 15.771 0 00-1.734-1.32l-.884-.558-.373.46c-.205.254-.373.586-.373.738 0 .493 6.035 5.008 6.708 5.018.128.002.278-.168.333-.378zm-9.85-1.211c.05-.085.032-.52-.042-.968-.108-.656-.306-.935-1.022-1.439-.866-.608-.896-.614-1.18-.226-.526.72-.36 1.457.48 2.144.73.596 1.56.827 1.764.489zm33.923-.828c-.253-.402-.722-.47-.838-.121-.043.128.077.389.267.579.453.452.913.084.571-.458zm-24.29-1.593c-.068-1.12-.253-1.344-2.508-3.044-2.575-1.941-2.908-2.081-3.281-1.383-.504.941-.267 1.293 2.048 3.038a113.05 113.05 0 012.158 1.675c1.36 1.089 1.663 1.034 1.583-.286zm22.898.077c.157-.255-.44-.79-.881-.79-.337 0-.35.453-.023.78.312.312.714.317.904.01zm-39.422-.84c.059-.715-.002-.808-.909-1.383-.736-.467-1.038-.561-1.245-.39-.527.438-.304 1.146.6 1.907 1.084.913 1.47.88 1.554-.135zm7.61.176c.09-.463-1.632-2.182-2.186-2.182-.668 0-.786.76-.214 1.373.542.58 1.813 1.31 2.126 1.22.113-.032.236-.217.274-.41zm30.826-1.187c.044-.236-.128-.383-.559-.478-.824-.18-1.11.004-.825.535.27.504 1.285.462 1.384-.057zm5.185-.214c1.74-.76 1.669-1.752-.276-3.83-1.476-1.577-2.144-2.59-2.498-3.79-.327-1.107-.666-1.194-.843-.215-.204 1.127-.45 1.504-.98 1.504-.258 0-.648.133-.867.296-.373.278-.378.335-.076.874.218.39.466.561.764.53.473-.052 1.218.875 2.101 2.616.576 1.135 1.408 2.467 1.54 2.467.054 0 .565-.204 1.135-.452zm-35.28-.49c.31-.807.104-1.249-1.027-2.2-.634-.533-1.284-.97-1.444-.97-.425 0-.796.937-.57 1.441.233.52 2.125 2.015 2.58 2.038a.507.507 0 00.462-.309zm-7.801-.416c.173-.689-.26-1.355-1.351-2.077-.815-.539-.85-.544-1.126-.166-.535.733-.347 1.29.691 2.052 1.176.863 1.606.909 1.786.191zm15.738-.72c0-.692-.14-.961-.903-1.734-.496-.504-.958-.916-1.027-.916-.069 0-.594-.337-1.168-.749-1.143-.821-1.462-.754-1.735.365-.12.485.016.652 1.332 1.644.806.607 1.84 1.405 2.297 1.772.457.368.915.617 1.018.553.102-.063.186-.484.186-.934zm-7.202-1.403c.548-1.023.136-1.757-1.706-3.039-.928-.646-1.436-.483-1.535.495-.054.534.116.766 1.301 1.778.75.64 1.445 1.164 1.545 1.164.1 0 .278-.18.395-.398zm-7.804-.425c.303-.565.026-1.014-1.256-2.035-1.145-.911-1.509-1.022-1.702-.517-.326.85-.12 1.309.954 2.122 1.22.924 1.686 1.024 2.004.43zm14.907-.624c.073-.117.07-.58-.006-1.03-.117-.695-.354-.997-1.57-1.997-.789-.649-1.542-1.18-1.675-1.18s-.369.266-.524.59c-.412.86-.094 1.356 1.579 2.457.792.523 1.5 1.045 1.572 1.162.168.271.457.27.625-.002zm-14.331-1.472c.607-.607.007-1.36-2.095-2.629-.756-.456-.814-.463-1.065-.12-.386.528-.205.8 1.293 1.957 1.471 1.136 1.507 1.151 1.867.792zm8.263-.68a1.254 1.254 0 00-.017-.98c-.21-.46-2.59-2.205-3.007-2.205-.118 0-.33.277-.47.616-.326.787.072 1.464 1.198 2.039.43.22.903.544 1.05.722.407.49 1.023.395 1.246-.191zm19.22-.72c0-.374-.125-.53-.463-.578-.37-.052-.463.034-.463.429 0 .592.178.803.607.72.186-.035.318-.274.318-.572zm-13.149-.42c.295-.478-.16-1.202-1.34-2.128-1.254-.985-1.894-1.135-2.021-.474-.074.382.726 1.232 2.1 2.234.878.64 1.06.693 1.261.367zm-13.512-.647c.322-.322.316-1.232-.01-1.64-.529-.66-2.651-2.224-3.018-2.224-.711 0-.848 1.183-.25 2.162.209.344.92.916 1.592 1.28 1.395.757 1.36.748 1.686.422zm8.16-.502c.452-.452.247-1.273-.47-1.885-1.899-1.622-2.467-2.052-2.876-2.182-.57-.181-.76.219-.574 1.21.105.563.445.958 1.679 1.95.85.685 1.627 1.245 1.725 1.245.098 0 .33-.152.517-.338zm19.183-.142c.044-.223-.07-.343-.325-.343-.54 0-.707.217-.428.554.29.35.665.245.753-.21zm.817-1.302a.835.835 0 00-.267-.685c-.276-.23-.382-.22-.664.063-.31.31-.307.367.047.758.45.496.799.443.884-.136zm-14.591-.62c.035-.248-.104-.599-.309-.78-1.067-.941-1.739-1.365-2.065-1.303-.543.104-.568.91-.04 1.34.249.204.694.577.99.83.662.568 1.336.526 1.424-.088zm-64.914-.07c.456-.852-.443-3.957-1.217-4.203-.523-.166-.524-.316-.019-1.753.516-1.466.512-2.358-.014-3.21-.513-.829-.426-1.017.554-1.2.546-.103 1.016-.432 1.723-1.206 2.047-2.24 2.5-2.874 2.407-3.365-.05-.26-.069-.474-.042-.474.027 0 .371.134.764.298.832.348 1.332 1.026 1.557 2.113.141.684.243.787.87.88.533.08.621.142.352.25-.198.08-.487.097-.642.037-.155-.06-.435.045-.622.232-.506.507-.253 4.52.326 5.158.87.957 2.951.66 2.8-.4-.055-.388-.193-.45-1.02-.45-1.256 0-1.4-.183-.381-.488.656-.197.824-.345.824-.728 0-.264-.209-.632-.463-.817-.447-.325-.425-.334.668-.282l1.13.055v-2.056l-1.027-.334-1.028-.335.703-.076c.637-.07.737-.174 1.063-1.105.198-.565.368-1.415.376-1.889.018-.958.25-1.244.635-.78.512.617 1.01.355 1.521-.803.711-1.608.775-2.118.463-3.735-.35-1.822-1.205-2.954-2.91-3.856-.66-.348-1.14-.426-2.415-.395-2.543.061-2.56.076-5.093 4.427-.71 1.221-1.485 2.322-1.723 2.446-.57.3-.732.57-.736 1.22-.006.952-1.851 5.21-2.98 6.872-.477.705-.518.944-.518 3.074 0 1.492.106 2.608.298 3.154.331.938 2.903 4.14 3.325 4.14.148 0 .368-.187.49-.415zm13.47-.227c.104-.329-.006-.556-.45-.922-1.081-.895-2.131-.855-1.838.07.374 1.176 1.993 1.78 2.288.853zm39.13-.21c.123-.356.225-.721.225-.812 0-.273-3.446-3.063-3.783-3.063-.4 0-.74.632-.738 1.374.001.436.188.706.758 1.093.416.283 1.177.86 1.69 1.285 1.146.945 1.551.972 1.847.123zm7.379-.526c.044-.294-.229-.665-.894-1.218a104.15 104.15 0 01-1.833-1.565c-1.11-.977-1.553-1.006-1.54-.103.01.601.2.807 1.902 2.053 1.04.762 1.984 1.356 2.097 1.32.113-.036.234-.255.268-.487zm20.493-.265c0-.408-.117-.528-.565-.58-.583-.066-.706.181-.437.882.21.548 1.002.31 1.002-.302zm-15.388-.72c.23-.598-.143-1.317-1.08-2.085-.907-.744-.958-.76-1.232-.385-.471.644-.331 1.155.545 1.988.864.822 1.563 1.013 1.767.482zm-11.44-.614c.536-.645.057-1.272-2.052-2.685-1.709-1.144-2.107-1.333-2.364-1.12-.17.14-.309.33-.309.422 0 .372 3.892 3.689 4.329 3.689.079 0 .257-.138.397-.306zm27.75-.568c-.005-.66-.311-1.057-.7-.908-.786.302-.644 1.37.183 1.37.403 0 .52-.103.517-.462zm-20.905 0c.097-.269-.46-1.387-.692-1.387-.073 0-.847-.578-1.72-1.285a156.403 156.403 0 00-2.34-1.862 22.96 22.96 0 01-1.37-1.152c-.977-.908-3.309-2.484-3.675-2.484-.216 0-.334.175-.334.498 0 .383.439.843 1.902 1.995 1.045.824 2.317 1.881 2.826 2.35.509.47 1.505 1.26 2.215 1.756.71.497 1.579 1.111 1.932 1.366.721.52 1.119.585 1.256.205zm22.022-1.735c-.116-.185-.414-.47-.66-.634-.402-.267-.464-.26-.589.066-.184.481.897 1.469 1.237 1.13.156-.157.16-.328.013-.562zm-27.672.307c.581-.581.146-1.175-2.322-3.167-1.647-1.328-2.277-1.643-2.66-1.326-.43.357-.408 1.31.039 1.708.44.393 4.426 3.028 4.584 3.03.062 0 .224-.11.36-.245zm10.315-.158c.368-.686.034-1.963-.645-2.465-.84-.621-1.251-.479-1.458.507-.164.782-.133.857.651 1.592.94.879 1.15.932 1.452.366zm-4.107-.922c0-.623-.17-.855-1.401-1.901-4.325-3.678-7.574-6.228-7.935-6.228-.396 0-.793.73-.647 1.19.1.312 1.639 1.64 2.912 2.51.248.17 1.117.863 1.93 1.542 4.69 3.907 5.141 4.16 5.141 2.887zm22.158-.756c.072-.599-.61-1.316-1.081-1.135-.447.172-.392.88.108 1.38.522.522.892.428.973-.245zm-20.625-1.192a.223.223 0 00-.07-.307c-.102-.064-.24.022-.304.19-.128.334.18.43.374.117zm-.958-.946c.06-.815.035-.847-2.008-2.567-6.295-5.302-6.769-5.659-7.177-5.403-.182.114-.36.481-.393.817-.051.507.11.762.958 1.52a67.189 67.189 0 004.14 3.442 72.315 72.315 0 012.466 1.988c.735.622 1.475 1.107 1.645 1.08.201-.034.329-.337.369-.877zm33.51.026c.122-1.486-.368-2.383-1.302-2.383-.691 0-.736.185-.38 1.557.376 1.44.61 1.773 1.187 1.69.338-.048.443-.233.495-.864zm-29.806-.812c.076-.919-.423-1.623-1.082-1.529-.628.09-.703 1.424-.113 2.014.649.649 1.117.458 1.195-.485zm10.818.439c.176-.252.32-.652.32-.89 0-.558-.881-1.386-1.37-1.286-.309.063-.371.255-.344 1.056.053 1.499.74 2.052 1.394 1.12zm-12.868-2.1c.039-.201-.022-.458-.135-.57-.248-.25-.744.555-.543.88.188.304.595.118.678-.31zm14.16-.527c.039-.407-.163-.664-.967-1.233-1.13-.801-1.71-.91-1.82-.34-.1.52 1.743 2.23 2.316 2.148.282-.04.44-.233.472-.575zm-15.196-.337c.058-.59-.092-.763-1.85-2.143a83.39 83.39 0 01-3.469-2.898c-2.184-1.961-3.263-2.659-3.727-2.41-.666.356-.47 1.32.402 1.97.424.317.874.669 1.001.782.127.113.957.76 1.843 1.439.887.678 2.032 1.615 2.545 2.082 1.27 1.157 2.487 1.953 2.873 1.88.19-.036.345-.32.382-.702zm3.498-.232c.08-.558-.972-1.692-1.57-1.692-.223 0-.46-.145-.528-.321-.162-.423-.537-.18-.537.347 0 .515 1.802 2.274 2.244 2.19.179-.034.355-.27.39-.524zm12.722-1.012c.096-.25-.186-.638-1.01-1.387-.63-.572-1.254-1.254-1.387-1.515-.3-.586-1.302-.564-1.415.03-.087.462.509 1.12 2.093 2.314 1.33 1.003 1.524 1.065 1.719.558zm-15.769-1.656c0-.578-.049-.626-3.905-3.8-3.847-3.167-4.28-3.483-4.674-3.409-.237.045-.384.293-.425.717-.056.573.053.728.925 1.322 1.047.714 1.907 1.381 3.629 2.813.582.485 1.194.993 1.36 1.129.166.136.629.467 1.028.736.4.268.889.659 1.088.868.464.49.974.292.974-.376zm3.368-.13c-.013-.419-.194-.942-.408-1.179-.365-.402-1.816-1.21-2.176-1.21-.28 0-.186 1.202.108 1.378.152.09.362.324.469.52.259.477 1.55 1.416 1.818 1.321.117-.041.202-.414.19-.83zm13.077-.033c0-.34-1.677-2.15-1.992-2.15-.116 0-.632-.37-1.146-.822-1.05-.925-1.384-1.02-1.384-.391 0 .438 1.526 1.967 2.75 2.755.352.226.805.576 1.008.778.393.392.764.31.764-.17zm11.048-.214c.633-.128.594-.775-.079-1.304-.382-.301-.84-.426-1.561-.426-.6 0-1.272-.148-1.633-.36-.602-.353-.62-.35-1.017.136-.573.704-.421 1.135.427 1.216.39.037.967.286 1.284.552.573.483.966.511 2.58.186zm-9.954-1.062c.05-.085.154-.448.23-.806.121-.564.048-.735-.54-1.27-1.72-1.56-4.828-3.934-5.152-3.935-.287-.002-.36.177-.36.879 0 .793.107.983 1.08 1.918.593.57 1.495 1.35 2.003 1.733.51.382 1.13.907 1.378 1.165.44.457 1.177.628 1.361.316zM92.686 199.8c.078-.674-.266-1.035-3.567-3.741-1.24-1.016-2.303-1.914-2.363-1.995-.283-.382-1.943-1.348-2.169-1.262-.312.12-.54.95-.376 1.376.065.171.361.47.657.664.295.194 1.42 1.059 2.5 1.922 1.08.864 2.345 1.825 2.81 2.136.466.311 1.063.796 1.327 1.078.602.64 1.096.565 1.181-.178zm3.287-.18c.048-.417-.1-.669-.636-1.078-.385-.293-.899-.533-1.143-.533-.245 0-.443-.13-.443-.292 0-.16-1.131-1.293-2.514-2.518a202.215 202.215 0 01-3.897-3.536c-1.458-1.382-1.898-1.494-2.136-.547-.14.557.354 1.549.77 1.549.127 0 .703.397 1.28.882a42.336 42.336 0 002.18 1.69c1.063.758 3.176 2.558 5.032 4.285.926.861 1.415.893 1.507.098zm14.954-1.014c.231-.373-.288-1.089-1.217-1.676-.482-.305-1.32-.973-1.861-1.485-.542-.512-1.054-.93-1.137-.93-.084 0-.68-.463-1.327-1.028-1.244-1.089-1.767-1.277-1.767-.637 0 .412 1.17 1.48 4.111 3.756.961.743 1.923 1.548 2.139 1.788.429.48.843.562 1.06.212zm-14.503-1.583c0-.36-1.208-1.66-1.879-2.02-.185-.099-1.48-1.28-2.878-2.624-3.968-3.817-5.31-4.675-5.479-3.503-.087.605 1.524 2.15 5.368 5.15.997.777 2.33 1.853 2.961 2.39 1.2 1.02 1.907 1.245 1.907.607zm15.519-.527c.175-.266.258-.64.184-.832-.172-.45-6.847-5.684-8.061-6.322-.39-.205-.512-.197-.665.045-.322.509-.217.84.445 1.4.351.298 1.063.935 1.582 1.415.52.48 1.015.874 1.103.874.088 0 .823.578 1.633 1.284 2.09 1.824 3.091 2.621 3.29 2.621.094 0 .314-.218.489-.485zm-15.115-1.93c-.008-.72-.178-.92-2.049-2.411-.848-.676-2.189-1.792-2.98-2.48-2.21-1.92-3.897-3.177-4.265-3.177-.183 0-.396.201-.474.447-.11.346-.01.542.448.873.325.234 1.312 1.074 2.193 1.865.88.792 2.044 1.81 2.584 2.262l2.395 2.004c1.59 1.33 2.158 1.494 2.148.617zm16.204-.093c.674-.673.195-1.204-3.761-4.176-2.525-1.896-3.086-2.338-5.01-3.953-1.014-.852-1.26-.842-1.26.052 0 .646.131.814 1.285 1.652a82.35 82.35 0 011.799 1.337c.282.222.803.611 1.158.865 1.133.811 3.544 2.819 3.714 3.091.178.287 1.532 1.373 1.716 1.377.062.002.224-.109.36-.245zm1.163-2.5c.183-.519.136-.643-.424-1.128-.346-.3-1.657-1.446-2.911-2.548-1.255-1.103-2.34-2.005-2.41-2.005-.072 0-1.228-.874-2.57-1.944-3.753-2.988-4.338-3.412-4.54-3.286-.323.199-.206 1.31.171 1.634 1.38 1.183 2.158 1.79 3.237 2.521.679.46 1.465 1.085 1.748 1.389.282.304.93.838 1.439 1.187.962.66 4.015 3.328 4.924 4.302.64.687 1.066.648 1.336-.121zm-71.972-1.107c.173-2.197.676-5.993 1.057-7.965.175-.905.377-2.091.45-2.637.12-.892.176-.978.565-.852.237.077.66.154.94.17.517.03.805-.374 2.559-3.604.651-1.2.835-1.314 1.457-.906.273.18.657.326.853.326.374 0 1.509-.971 1.509-1.291 0-.103.17-.433.376-.733.465-.672.99-2.992 1.264-5.581.113-1.074.392-2.905.619-4.067.227-1.163.413-2.726.413-3.473 0-1.312.031-1.394.927-2.443 1.172-1.372 2.004-3.101 1.734-3.606-.107-.199-.38-.42-.609-.493-.604-.192-.949-1.211-1.117-3.298a46.761 46.761 0 00-.527-3.895c-.208-1.13-.44-2.657-.514-3.392a51.653 51.653 0 00-.467-3.186c-.183-1.018-.337-2.266-.342-2.775-.01-.864.028-.93.569-.991.318-.037.785.069 1.037.234.517.339 1.57 2.822 1.57 3.703 0 .315.09.96.199 1.434.109.474.3 1.393.425 2.044.178.924.31 1.181.603 1.181.284 0 .55-.46 1.096-1.9.396-1.047.78-2.168.853-2.493.404-1.792-1.543-9.256-4.297-16.47-.302-.792-.789-2.133-1.081-2.98-.292-.849-.703-1.788-.912-2.088-.21-.3-.38-.647-.38-.77 0-.216-1.454-3.644-1.86-4.386a1.716 1.716 0 01-.189-.72c.006-.28.122-.222.513.255.278.34.506.703.507.809 0 .106.172.383.382.617.695.773 2.36 4.364 3.15 6.796.885 2.725 2.91 7.503 3.18 7.503.404 0 .198-5.42-.351-9.25l-.602-4.214c-.544-3.826-2.394-10.314-3.501-12.279-.111-.196-.205-.474-.208-.617-.014-.532-.606-1.022-1.469-1.214-1.11-.247-2.435-1.483-3.276-3.054a106.823 106.823 0 00-1.895-3.289 380.19 380.19 0 01-1.587-2.672 8.457 8.457 0 00-.582-.87c-.231-.287-.236-.415-.027-.668.358-.43.707-.392 1.608.177.426.269 1.34.774 2.03 1.123 1.368.69 2.435 1.81 2.726 2.86.101.367.63 1.477 1.175 2.466 1.263 2.294 2.113 4.158 2.12 4.652.003.213.203.706.444 1.096 1.124 1.818 3.205 9.223 3.512 12.495.036.385.174.616.366.616s.332-.233.371-.616c.035-.34.24-1.265.458-2.056.986-3.598 1.07-6.703.306-11.309-.604-3.637-.755-4.15-2.749-9.352-.743-1.937-2.265-4.72-3.244-5.93-1.968-2.432-5.821-4.353-8.756-4.367-.761-.004-1.48.052-1.596.125-.334.206-2.406-.295-2.911-.705l-.457-.37.456-.243c.72-.385 3.743-.521 5.2-.235 2.9.57 6.173 2.353 8.092 4.407 2.321 2.486 5.812 9.924 7.091 15.113 1.498 6.074 1.788 9.825 1.102 14.22-.187 1.198-.28 2.415-.208 2.705.089.353.593.83 1.525 1.445 1.913 1.26 2.074 1.48 1.344 1.834-.568.275-.576.303-.538 1.984.056 2.45.25 2.582 2.878 1.96 2.627-.621 9.067-.058 9.568.837.098.175.387.317.643.317.581 0 2.186-.76 2.186-1.036 0-.115.222-.15.503-.079.31.078.683 0 .97-.202.258-.18.646-.327.862-.327.216 0 1.433-.693 2.704-1.54l2.311-1.538.526-1.699c1.116-3.601 1.183-4.427.342-4.207-.99.259-1.323-1.59-.643-3.574.85-2.482 2.121-7.673 2.394-9.78.134-1.037.744-1.967 1.01-1.538.067.11.18.88.248 1.71.15 1.805-.653 6.27-1.597 8.888-.322.893-.585 1.749-.585 1.901 0 .152.37.647.822 1.099.48.48.822 1.018.822 1.293 0 .259-.278 1.33-.619 2.38-.34 1.05-.564 1.998-.496 2.107.149.241.565.122 2.554-.731 2.239-.96 7.514-2.174 9.455-2.174 1.254 0 3.9-.736 4.338-1.205.223-.24.557-.437.742-.437.449 0 1.087-.598 1.087-1.018 0-.426.396-.832.812-.833.368 0 2.066-2.112 2.066-2.57 0-.414-.958-.398-1.747.03a1684.926 1684.926 0 01-4.83 2.614c-1.802.972-3.084 1.24-3.084.647 0-.343 1.766-1.532 2.285-1.538.182-.002.552-.177.822-.389.27-.211 1.739-1.098 3.265-1.971s2.867-1.662 2.98-1.755c.114-.092.9-.514 1.748-.937a36.906 36.906 0 002.877-1.628c.735-.472 1.892-1.198 2.571-1.612.68-.414 1.64-1.17 2.133-1.68.494-.51.976-.926 1.07-.926.095 0 .275-.19.4-.423.18-.338.112-.713-.34-1.866-.582-1.482-1.077-2.028-1.84-2.028-.24 0-1-.365-1.691-.812-1.102-.712-1.292-.933-1.546-1.798-.375-1.278-.142-2.096 1.63-5.739.722-1.484 1.313-2.798 1.313-2.918 0-.567-.503-.4-1.37.456-.88.866-1.62 1.311-1.832 1.1-.049-.05-.003-.358.102-.688.457-1.44 1.307-5.505 1.571-7.513.518-3.933.816-13.46.516-16.467l-.43-4.363c-.217-2.238-.51-3.99-1.222-7.302a227.79 227.79 0 01-.641-3.083c-.337-1.718-1.142-4.208-2.047-6.328-.447-1.05-.813-2.041-.813-2.205 0-.587-.879-.908-2.47-.903-.847.003-2.371-.142-3.389-.322-5.627-.99-6.68-1.059-6.68-.434 0 .262.664 1.078 2.467 3.028 1.725 1.868 2.238 2.555 4.369 5.855 2.284 3.537 4.114 7.982 4.982 12.1.262 1.244.541 2.423.62 2.621.087.216.052.36-.09.36-.128 0-.266-.116-.305-.257-.84-3.002-2.946-8.658-4.101-11.016-1.866-3.805-5.02-8.647-6.988-10.722a21.374 21.374 0 01-1.44-1.695c-.517-.71-.644-.771-1.567-.771-.552 0-1.264-.103-1.582-.229-.355-.14-2.581-.251-5.756-.287l-5.176-.058-1.227-.675c-1.207-.663-1.237-.668-1.782-.311-.45.295-.53.465-.423.91.202.842.55 6.452.43 6.947-.189.79.266 3.423.99 5.728 1.358 4.32 2.433 9.155 3.222 14.491.175 1.19.262 4.522.117 4.522-.047 0-1.115-.737-2.374-1.638-1.26-.902-2.863-1.912-3.564-2.245-2.077-.987-5.415-2.283-5.88-2.283-.55 0-.558.493-.02 1.177.565.718.515 1.225-.154 1.573-.31.162-.935.653-1.387 1.09-1.649 1.594-5.545 6.262-6.445 7.722-.389.631-.594.771-1.132.771-.88 0-1.57-.511-1.57-1.163 0-.592.576-1.92.832-1.92.093 0 .696-.625 1.34-1.388a165.97 165.97 0 012.453-2.826c2.648-2.97 3.185-3.617 3.482-4.19.167-.324.493-.638.723-.698.23-.06.42-.2.42-.311 0-.222-2.094-1.106-3.392-1.433-1.54-.387-5.753-2.043-6.68-2.625-1-.628-2.812-2.491-2.615-2.689.066-.066.95.392 1.964 1.02 2.247 1.39 2.839 1.643 4.898 2.1.886.196 1.98.512 2.433.7.452.19 1.516.462 2.364.605.848.144 1.958.382 2.466.53.51.148 1.25.333 1.645.41.396.077 1.69.416 2.875.753 2.311.656 3.933 1.471 5.194 2.611 1.126 1.017 1.325.727 1-1.455-.46-3.075-1.308-7.202-2.25-10.95-.084-.34-.285-.617-.444-.617-.358 0-.405.934-.215 4.317.075 1.356.064 2.674-.026 2.929-.253.717-1.042.595-1.811-.281l-.653-.744.134-3.316c.074-1.824.276-4.102.45-5.063.408-2.264.426-2.716.113-2.824-.155-.053-.503.43-.872 1.213-1.819 3.857-4.286 6.896-6.44 7.933-.36.173-.839.482-1.066.686-1.59 1.429-6.12 1.506-7.987.137-.354-.26-.898-.602-1.21-.76-.31-.159-.564-.356-.564-.439 0-.083-.486-.48-1.08-.881a15.838 15.838 0 01-3.539-3.267c-.426-.537-.9-.976-1.054-.976-.465 0-.868 1.072-1.123 2.989-.352 2.643-.16 3.91.93 6.134.506 1.03 1.272 2.43 1.703 3.107.431.679 1.14 1.881 1.576 2.673.436.791.998 1.716 1.249 2.055.25.34.525.848.609 1.13.083.283.523 1.332.977 2.331.613 1.349.766 1.876.594 2.049-.485.484-1.48-1.116-4.88-7.847l-3.465-6.86-.049-2.595a5467.2 5467.2 0 01-.051-2.75c-.001-.086-.18-.155-.395-.155-.227 0-1.121.775-2.129 1.846-1.41 1.498-1.823 2.088-2.192 3.134-.997 2.826-5.284 11.74-7.935 16.5-1.91 3.429-2.191 3.928-2.67 4.728-.928 1.549-1.08 1.852-1.405 2.816-.448 1.33-.953 4.849-.964 6.727-.01 1.787-.42 5.172-1.021 8.443-.115.622-.388 2.38-.608 3.906-.22 1.526-.448 2.96-.507 3.186-.11.43-.502 4.72-.655 7.194-.05.792-.14 1.624-.203 1.85-.062.226-.192 1.151-.288 2.056a79.503 79.503 0 01-.416 3.186c-.185 1.181-.184 1.925.002 3.186.134.904.27 2.708.305 4.008.034 1.3.126 3.29.205 4.42.15 2.17.06 2.687-.941 5.369l-.47 1.258.546 1.311c.3.722.656 1.728.791 2.237.312 1.172.315 3.897.005 4.476-.398.744-1.32 6.356-1.984 12.07-.32 2.748-.362 6.639-.118 10.733.146 2.439.217 2.798.702 3.53.475.719 2.396 6.169 2.706 7.68.08.388.244.566.523.566.224 0 .408-.032.408-.072 0-.04-.184-.941-.408-2.004-.225-1.063-.41-2.378-.411-2.923-.003-.959.014-.988.561-.925.423.05.657.26.93.841.508 1.084 1.01 3.617.856 4.319-.168.766.373 1.38 1.214 1.38.814 0 3.013.62 3.013.85 0 .275-2.445.206-3.598-.1-1.23-.328-3.343-.14-4.112.364-.484.317-.513.443-.535 2.334-.053 4.566.07 8.176.288 8.441.157.19.48.235 1.06.145 2.162-.337 2.955-.34 4.077-.013.638.186 1.372.514 1.63.73.91.757 1.12.558 1.256-1.188zm-1.304-14.145c-.332-.873-.227-4.214.208-6.591.914-5.004 1.486-7.142 2.272-8.504 1.002-1.734 1.507-.758.578 1.118-.747 1.51-1.215 3.267-1.424 5.355-.113 1.132-.26 2.234-.325 2.449-.065.215-.11 1.542-.1 2.948.015 1.904-.06 2.71-.29 3.155-.38.736-.658.758-.92.07zm11.516-20.288c-.747-.37-1.387-1.834-1.767-4.045-.382-2.222-1.066-4.623-1.735-6.09-.253-.558-.536-1.245-.628-1.528-.575-1.777-1.22-3.292-1.694-3.985-.617-.9-.671-1.207-.27-1.539.322-.268 1.747-.056 2.69.401.689.333 1.858 2.137 2.19 3.376.12.452.43 1.192.686 1.645.257.452.765 1.793 1.13 2.98.364 1.187.734 2.344.823 2.57.088.226.374 1.65.636 3.163.461 2.675.464 2.76.092 3.032-.474.347-1.473.356-2.153.02zm-17.806-19.98c-.178-.465-.112-.558 2.066-2.897 2.557-2.748 6.094-5.641 6.895-5.641.631 0 1.65.699 1.65 1.132 0 .153-.3.488-.667.744-.368.255-.854.63-1.08.833a336.395 336.395 0 01-3.208 2.853c-.7.615-1.813 1.604-2.474 2.198-1.075.967-1.297 1.079-2.133 1.079-.63 0-.971-.098-1.05-.302zm33.817-13.556c-.814-.556-1.408-1.614-1.565-2.786-.08-.59.04-1.009.54-1.895.354-.626.826-1.304 1.05-1.507.225-.203.408-.453.408-.556 0-.23.984-1.59 1.455-2.01.19-.17.916-.979 1.613-1.799.698-.82 1.381-1.49 1.519-1.49.294 0 1.58 1.895 1.58 2.328 0 .164-.138.562-.307.886-.169.324-.308.778-.308 1.01-.002.517-1.016 2.496-2.47 4.82-.602.961-1.293 2.118-1.538 2.57-.538.996-1 1.096-1.977.429zm-3.574-4.64c-.17-.276.141-.803 1.215-2.061 1.697-1.988 3.748-6.078 5.36-10.686 1.028-2.942 1.32-4.194 1.08-4.625-.293-.52.006-.686 1.672-.922a10.189 10.189 0 002.964-.93c.8-.395 1.695-.718 1.987-.718.693 0 1.446-.536 1.446-1.03 0-.473.347-1.295.954-2.259.606-.962 1.66-3.615 1.816-4.573.07-.424.228-.771.352-.771.68 0-.622 5.627-1.6 6.923-.272.36-.576.869-.678 1.13-.132.346-.687.688-2.004 1.237-1.927.804-4.883 1.81-5.32 1.81-.344 0-.509.472-.509 1.461 0 .947-.666 3.63-1.343 5.412-1.335 3.51-3.452 7.712-4.468 8.866-.864.982-2.712 2.078-2.924 1.735zm-1.228-4.515c-.066-.107.123-1.24.421-2.518.49-2.1.53-2.574.417-4.935-.114-2.368-.282-3.36-.929-5.485-.21-.69-.15-1.05.174-1.05.343 0 1.005 2.007 1.229 3.722.267 2.044.34 6.393.133 7.892-.254 1.842-1.008 3.08-1.445 2.374zm28.8-2.62c-.084-.083-.448-.154-.81-.158-.641-.007-.66-.032-.722-1.022l-.064-1.015.385.476c.507.625 1.173.424 1.476-.446.337-.966.582-.437.444.956-.114 1.142-.359 1.56-.71 1.21zm-23.45-11.587c-.535-.339-1.86-1.031-2.945-1.538-3.074-1.437-1.796-1.77 1.758-.459 1.072.396 2.511 1.618 2.511 2.133 0 .512-.36.475-1.324-.136zm22.942.035c-.69-.426-1.311-2.344-1.906-5.88a70.886 70.886 0 00-.627-3.083c-.41-1.816-.825-4.24-1.6-9.353-.215-1.413-.488-2.985-.607-3.494-.277-1.177-.286-2.056-.022-2.056.113 0 .205.27.205.6 0 .33.426 1.867.946 3.417.52 1.55 1.155 3.8 1.409 5.002.254 1.201.741 3.248 1.083 4.548.342 1.3.702 2.919.801 3.597.147 1.003.257 1.245.592 1.293.798.115 1.243 1.9.568 2.278-.297.166-.346.442-.291 1.632.066 1.428-.07 1.796-.551 1.499zm1.93-3.767c-.413-.59-.425-1.599-.02-1.599.4 0 .728.644.728 1.426 0 .743-.264.808-.708.173zm-27.968-.572c-.147-.238-.064-.27 1.748-.68 3.313-.75 5.485-1.52 8.12-2.881.678-.35 1.87-.949 2.647-1.33.778-.38 1.873-1.053 2.434-1.497 1.046-.827 2.01-1.063 2.01-.493 0 .36-1.335 1.355-3.04 2.27-5.668 3.036-7.498 3.81-10.115 4.279-.283.05-.93.19-1.44.31-1.177.278-2.2.287-2.364.022zm-4.157-8.309c-.752-.632-1.987-2.327-3.308-4.537l-.982-1.645-1.12-.042c-1.765-.068-1.947-.164-2.528-1.343-.807-1.636-1.319-4.21-1.586-7.967-.335-4.71-.026-8.223.722-8.223.573 0 1.26.946 1.493 2.056l.56 2.672c.44 2.103.868 3.87 1.47 6.064.86 3.137 1.168 4.073 1.69 5.139.719 1.471 3.213 5.67 3.695 6.223 1.122 1.285 1.037 2.565-.106 1.603zm43.148-1.878a7.512 7.512 0 01-1.324-.78c-.367-.277-1.29-.796-2.054-1.155-.763-.358-1.387-.737-1.387-.842 0-.251.074-.242 1.692.2.76.207 1.72.644 2.13.97 1.566 1.243 1.208 1.251 4.33-.095a352.073 352.073 0 004.201-1.84l1.356-.614.135-1.101c.3-2.454 1.395-7.371 1.642-7.371.328 0-.073 5.311-.508 6.718-.505 1.637-1.122 2.356-2.706 3.152-.702.352-1.83.958-2.509 1.345-.678.388-1.742.849-2.364 1.025-.621.176-1.32.398-1.553.492-.265.108-.668.07-1.08-.104zm-6.315-4.831c-.066-.106.022-.192.194-.192.611 0 4.567-1.872 7.317-3.463 2.184-1.263 5.512-3.692 6.233-4.549.666-.791 1.461-1.27 1.857-1.118.571.22.389.56-1.05 1.963-2.547 2.483-4.933 4.137-8.171 5.665-.565.266-1.173.565-1.351.664-.428.238-3.174.975-4.144 1.113-.422.06-.82.023-.885-.083zm-9.715-1.672c-.285-.285-.336-1.398-.063-1.398.101 0 .237.139.302.309.186.484.705.362 1.092-.257.194-.311.387-.61.427-.662.04-.054.16.039.265.205.312.495.224 1.345-.179 1.71-.438.396-1.488.45-1.844.093zm-.45-5.198a.64.64 0 01-.089-.668c.192-.42.432-3.688.615-8.379.09-2.285.027-4.538-.206-7.383-.204-2.496-.26-4.169-.145-4.284.181-.182 3.11 1.769 3.114 2.074 0 .076.532.699 1.182 1.385 2.114 2.235 4.397 5.912 4.034 6.499-.222.359-.521.098-2.165-1.888-.936-1.13-1.835-2.056-1.997-2.056-.246 0-.269.314-.138 1.902.332 4.007.064 5.305-1.06 5.14-.88-.129-1.199.41-1.49 2.517-.22 1.591-.497 3.06-.941 4.984-.124.537-.356.588-.714.157zm14.845-7.14c-.32-.385-.443-1.76-.553-6.143-.09-3.655-.325-5.468-1.043-8.097-.558-2.038-.875-3.094-1.1-3.662a7.2 7.2 0 01-.229-.626c0-.027.232-.044.516-.038.363.007.646.222.955.729 1.612 2.636 3.115 6.803 3.782 10.48.26 1.43.322 2.513.233 4.073-.148 2.622-.507 3.4-1.608 3.494-.423.036-.822-.052-.953-.21zm-8.977-10.592c-.291-.424-1.272-1.88-2.179-3.237-.907-1.357-2.733-4.058-4.058-6.003-4.027-5.913-4.155-6.106-4.155-6.272 0-.442.604.027 2.636 2.049 2.25 2.238 3.202 3.542 6.34 8.684 1.908 3.125 2.059 3.435 2.23 4.577.18 1.2-.085 1.265-.814.202zm2.968 136.386c0-.552-.722-1.799-1.04-1.799-.122 0-.748-.487-1.39-1.082a35.665 35.665 0 00-2.091-1.788c-.51-.388-1.641-1.348-2.516-2.131-1.337-1.198-1.64-1.384-1.901-1.168-.591.49-.34 1.091.974 2.33.706.667 1.662 1.458 2.123 1.759.9.586 3.24 2.588 4.28 3.662.77.794 1.562.904 1.561.217zm17.51-2.528a3.507 3.507 0 00-.308-1.042c-.242-.459-2.06-2.043-4.311-3.758-.653-.497-1.253-1.006-1.334-1.13-.082-.125-.934-.824-1.895-1.553a76.77 76.77 0 01-2.98-2.386c-1.844-1.586-5.912-4.865-8.104-6.532-3.817-2.902-4.02-3.001-4.249-2.087-.146.58.199 1.127.712 1.13.184 0 .872.495 1.529 1.098.656.603 1.699 1.504 2.316 2.002 5.22 4.212 5.978 4.793 8.122 6.233.406.273.869.623 1.028.778.16.156 1.307 1.1 2.55 2.098 1.244.998 2.692 2.259 3.218 2.802 1.679 1.734 3.281 3.103 3.53 3.015.133-.047.212-.347.176-.668zm-19.462-2.283c-1.357-1.299-2.883-2.699-3.392-3.112a74.453 74.453 0 01-1.69-1.42c-.813-.71-1.393-.72-1.393-.026 0 .554 1.85 2.343 3.668 3.545.83.55 2.032 1.477 2.672 2.063 1.61 1.474 2.124 1.804 2.388 1.532.15-.154-.523-.925-2.253-2.582zm-10.624 1.3c.052-.439-.02-.55-.36-.55-.307 0-.424.133-.424.48 0 .934.675.994.784.07zm13.362-1.003c-.074-.509-6.428-6.504-7.513-7.089-.49-.263-.725-.297-.894-.128-.37.369-.041.981.893 1.668a22.266 22.266 0 011.729 1.448c.472.446 1.068.957 1.324 1.136.256.18 1.072.916 1.814 1.635 1.873 1.819 2.784 2.276 2.647 1.33zm-12.543-.797c.05-.425-.162-.723-1.06-1.49-1.516-1.295-2.71-1.3-1.74-.007 1.542 2.054 2.666 2.655 2.8 1.497zm28.274-1.398c-.039-.816-.19-.995-2.333-2.76a91.401 91.401 0 01-2.158-1.82c-1.043-.96-4.351-3.64-5.358-4.34-.614-.426-1.117-.86-1.117-.965 0-.103-.51-.527-1.132-.94-.623-.413-1.201-.867-1.285-1.01-.084-.141-1.078-.973-2.208-1.848-1.13-.876-2.38-1.889-2.775-2.252-1.098-1.008-2.198-1.766-2.561-1.766-.18 0-.42.244-.533.542-.351.924-.071 1.201 4.487 4.447 2.767 1.971 4.11 3.003 5.806 4.467 2.482 2.14 3.678 3.12 4.517 3.703.396.275 1.414 1.159 2.261 1.964 3.724 3.538 4.455 3.967 4.389 2.578zm-15 .13c.103-.383-.198-.77-1.775-2.282-3.31-3.17-5.437-4.86-6.121-4.86-.482 0-.61.09-.61.432 0 .485.622 1.124 2.977 3.061.893.735 1.823 1.551 2.068 1.815.785.847 2.653 2.269 3 2.283.185.008.392-.194.46-.448zm3.314-.151c.155-.49-.016-.825-.423-.825-.192 0-.296.217-.296.617 0 .71.512.858.719.208zm-15.93-.707c0-.162-.43-.694-.957-1.182-.527-.489-2.06-1.975-3.407-3.304-1.347-1.328-2.535-2.415-2.64-2.415-.393 0-.17.994.396 1.768.323.44 1.034 1.172 1.58 1.624.545.452 1.384 1.21 1.864 1.683 1.076 1.063 2.515 2.12 2.886 2.12.153 0 .278-.133.278-.294zm28.21-1.635c-.126-.275-.674-.804-1.218-1.175-1.074-.733-3.854-2.986-5.537-4.487a100.38 100.38 0 00-5.525-4.634 86.08 86.08 0 01-4.316-3.686c-4.303-3.987-4.634-4.222-4.913-3.494-.244.636.41 1.414 2.568 3.053 3.754 2.852 5.553 4.248 5.933 4.601.202.188 1.073.896 1.935 1.573.863.677 1.568 1.298 1.568 1.38 0 .082.532.512 1.182.956 1.209.826 1.574 1.131 6.6 5.53 1.072.938 1.575 1.26 1.73 1.103.157-.155.154-.365-.008-.72zm-27.388-.435c0-.33-.546-.929-1.894-2.081-1.042-.89-3.192-2.89-4.78-4.443-1.586-1.554-2.956-2.825-3.045-2.827-.088 0-.211.13-.273.292-.236.614.63 1.773 2.604 3.489 1.124.976 2.044 1.856 2.044 1.954 0 .098 1.07 1.166 2.377 2.373 1.944 1.795 2.432 2.15 2.672 1.95.162-.134.295-.452.295-.707zm12.225.728c.224-.362-.455-1.587-1.153-2.083-.38-.27-1.339-1.086-2.13-1.814-2.266-2.081-4.441-3.744-4.806-3.671-.223.045-.311.234-.267.575.07.545 1.607 2.095 4.547 4.588.954.81 2.015 1.726 2.358 2.036.632.574 1.23.726 1.45.37zm16.433-1.581c.175-.455-.15-.923-1.116-1.614-.475-.34-1.848-1.512-3.051-2.607-1.204-1.094-2.605-2.29-3.113-2.656-.51-.367-1.695-1.321-2.635-2.121-.94-.8-2.235-1.85-2.878-2.335-1.253-.944-4.256-3.635-5.838-5.232-.533-.539-1.042-.98-1.13-.98-.089 0-.577-.37-1.086-.822-.967-.859-1.575-1.035-1.776-.513-.199.519.108 1.3.568 1.446.24.077 1.142.8 2.004 1.609 2.212 2.074 4.167 3.74 6.193 5.278.96.73 2.367 1.835 3.125 2.457.757.623 1.775 1.441 2.26 1.82.89.692 3.627 3.112 4.782 4.227 1.434 1.385 3.01 2.566 3.283 2.461a.823.823 0 00.408-.418zm-14.96-.588c.171-.444-.803-1.63-2.25-2.742-1.729-1.328-4.568-3.84-5.728-5.067-1.064-1.126-1.195-1.106-1.574.23-.32 1.125-.353 1.04.599 1.526.814.415 1.467.937 5.515 4.41 1.054.905 2.067 1.708 2.252 1.785.575.24 1.063.18 1.187-.142zm-12.384-1.645c.693-1.73.687-2.256-.03-2.709-.76-.48-2.116-1.546-3.853-3.029a355.124 355.124 0 00-1.805-1.533c-.326-.27-.404-.267-.706.035-.315.315-.182.488 1.89 2.453 1.226 1.162 2.63 2.426 3.12 2.809.491.382.892.822.892.976 0 .518-1.01.295-1.798-.397a62.729 62.729 0 00-2.14-1.75c-.752-.59-1.651-1.394-1.997-1.788-1.043-1.188-2.698-1.863-2.698-1.1 0 .236 4.327 4.448 6.372 6.204 1.793 1.538 2.076 1.52 2.753-.17zm28.245.475c.439-.439.276-1.143-.37-1.603-1.246-.887-1.934.065-.891 1.235.594.667.879.75 1.26.368zm1.481-2.323c.223-.606-.104-1.272-.8-1.632-.795-.411-1.257-.225-1.257.506 0 .393.205.748.644 1.118.726.611 1.191.614 1.413.008zm-28.647-1.85c.283-.739-.178-1.355-2.112-2.82-3.276-2.482-3.18-2.424-3.601-2.199-.561.3-.464.719.288 1.244.368.256 1.362 1.078 2.21 1.826 2.623 2.315 2.989 2.537 3.215 1.949zm29.632-.143c.446-.446.298-1.523-.26-1.888-.644-.423-1.263-.426-1.424-.007-.261.68-.11 1.3.417 1.715.62.487.917.53 1.267.18zm-8.18-1.165c0-.665-1.993-2.79-3.666-3.908-.415-.278-1.292-.966-1.949-1.53-1.327-1.138-1.706-1.438-4.52-3.578a77.844 77.844 0 01-3.99-3.312c-2.768-2.483-3.348-2.75-3.348-1.538 0 .56.687 1.253 4.214 4.249 1.937 1.645 7.184 5.868 9.692 7.801.47.362 1.292 1.005 1.827 1.429 1.07.847 1.74.996 1.74.387zm-20.884-1.107c.05-.254.237-1.11.416-1.901.501-2.225.463-2.414-.682-3.373-1.108-.928-1.36-.992-2.033-.521-.645.452-.567.965.212 1.388 1.069.581 1.662 1.097 1.522 1.324-.17.276-1.25-.097-2.156-.745-.567-.405-.793-.456-1.335-.3-1.071.307-.886.978.61 2.213.695.573 1.62 1.338 2.056 1.7.947.785 1.268.834 1.39.215zm30.248-.284c-.26-1.03-1.615-1.718-1.904-.965-.157.41 1.043 1.506 1.65 1.506.318 0 .365-.1.254-.54zm-41.88-1.25c-.07-.605-1.169-1.498-1.843-1.498-.582 0-.457.418.38 1.276.927.948 1.559 1.044 1.463.221zm33.132.028c0-.515-.974-1.683-1.97-2.364-.236-.16-.884-.676-1.44-1.145a182.907 182.907 0 00-2.551-2.095c-2.592-2.09-3.68-3.001-6.96-5.836-4.326-3.735-4.03-3.528-4.445-3.113-.442.443-.258 1.22.474 2 .665.709 4.474 3.775 7.437 5.986 1.187.886 2.76 2.13 3.494 2.764.735.634 1.706 1.405 2.158 1.713.452.308 1.315 1.023 1.918 1.59 1.235 1.162 1.885 1.334 1.885.5zm9.661-.798c0-.47-.155-.856-.457-1.137-.543-.507-.93-.468-1.328.131-.27.407-.239.493.386 1.079.93.87 1.399.846 1.399-.073zm-42.006-1.45c.14-.368-.267-.922-.678-.922-.35 0-.57.5-.408.925.154.4.932.399 1.086-.003zm33.37-.095c.255-.477.275-.456-2.282-2.436-.974-.755-3.471-2.806-5.55-4.56-2.078-1.753-4.412-3.696-5.186-4.316-.773-.621-1.975-1.615-2.67-2.208-1.292-1.103-1.717-1.267-2.151-.833-.486.486-.227.923 1.14 1.923a51.668 51.668 0 012.93 2.369c.848.744 1.932 1.6 2.41 1.901 1.12.708 3.15 2.299 8.578 6.728 1.238 1.011 2.322 1.838 2.408 1.838.086 0 .254-.183.373-.406zm9.469-.752c.378-.994-.706-1.97-1.409-1.267-.392.393-.286 1.114.216 1.464.667.465.96.417 1.193-.197zm-41.55-1.134c-.287-.537-1.18-.87-1.537-.575-.384.319-.166.724.588 1.088.797.387 1.289.12.95-.513zm33.317-.16c0-.447-.173-.726-.668-1.075-.367-.26-1.575-1.214-2.684-2.121a169.07 169.07 0 00-3.09-2.473 33.352 33.352 0 01-1.934-1.62 20.306 20.306 0 00-1.46-1.23c-.331-.24-1.699-1.333-3.04-2.429l-3.956-3.232c-.836-.682-1.599-1.19-1.696-1.13-.098.06-.177.367-.177.683 0 .614 1.011 1.654 3.417 3.513 1.679 1.296 1.903 1.473 2.624 2.068.352.29.963.75 1.359 1.022.946.65 2.705 2.071 4.11 3.32 2.31 2.053 6.487 5.29 6.835 5.298.263.006.36-.155.36-.594zm-22.716-.71c-.21-1.337-1.453-2.085-1.943-1.168-.354.661-.25.925.629 1.6 1.09.838 1.492.706 1.314-.432zm-15.311-.469c0-.305-.262-.742-.663-1.108-1.067-.975-1.501-.71-.93.567.539 1.207 1.593 1.565 1.593.541zm47.277-.58c0-1.031-1.183-1.233-1.525-.26-.164.468-.115.647.302 1.09l.498.53.363-.447c.199-.246.362-.657.362-.913zm-41.08.13c.152-.415.05-.602-.697-1.286-.938-.857-1.168-.939-1.554-.553-.464.464-.282 1.268.42 1.86.809.683 1.576.673 1.831-.022zm33.024-.269c.05-.427-.104-.674-.7-1.13a74.03 74.03 0 01-2.221-1.825c-.803-.682-1.829-1.509-2.281-1.836a15.072 15.072 0 01-1.547-1.329c-.398-.403-.985-.902-1.304-1.11-1.035-.673-7.492-6.246-9.962-8.596-.606-.577-1.173-.964-1.268-.866-.094.098-.224.595-.288 1.103l-.116.925 1.618 1.408c.89.774 1.849 1.56 2.13 1.747.282.187 1.24.915 2.13 1.618.89.703 2.025 1.581 2.522 1.953.497.37 2.013 1.6 3.368 2.73s3.18 2.61 4.054 3.289c.875.678 1.877 1.54 2.227 1.916.785.842 1.54.844 1.638.003zm-38.425-.946c.128-.24.113-.515-.044-.807-.308-.573-3.648-4.175-3.871-4.175-.281 0-.17 1.074.206 2 .388.956 1.633 2.375 2.6 2.965.769.468.867.47 1.11.017zm14.752-.154c.142-.368-.266-.922-.677-.922-.35 0-.571.5-.408.925.154.4.931.399 1.085-.003zm-7.573-.14c.474-.475.236-.93-1.217-2.333l-1.464-1.413-.386.477c-.706.872-.48 1.387 1.226 2.784.936.766 1.43.896 1.841.484zm40.044-.458c.15-.39-.271-1.146-.64-1.146-.456 0-.8.784-.502 1.143.315.38.997.382 1.142.003zm-7.643-.257c.142-.37-1.468-2.069-2.448-2.582-.477-.25-1.766-1.25-5.108-3.96a91.887 91.887 0 00-1.987-1.57c-1.092-.821-7.809-6.704-8.68-7.6-.833-.858-1.692-1.198-2.07-.82-.361.36-.03.757 2.134 2.552a306.92 306.92 0 013.765 3.186c1.006.869 2.584 2.181 3.507 2.916a126.45 126.45 0 013.225 2.672c.85.735 2.305 1.937 3.232 2.672a200.19 200.19 0 012.615 2.107c1.003.832 1.606.973 1.815.427zm-38.025-1.157c.185-.528.115-.655-.914-1.642a47.122 47.122 0 00-1.944-1.764 71.352 71.352 0 01-2.335-2.107c-.828-.777-1.591-1.414-1.696-1.414-.322 0-.21 1.004.2 1.807.216.42 1.256 1.555 2.313 2.523 1.057.967 2.292 2.1 2.744 2.515.945.87 1.348.89 1.632.082zm7.914.18c.403-.486-1.036-1.927-2.005-2.008-.65-.054-.767-.141-.821-.613-.064-.554-.91-1.427-3.745-3.869-3.468-2.986-5.288-4.69-8.418-7.876-1.868-1.902-3.57-3.553-3.782-3.67-.508-.28-.756.111-.603.95.163.896.6 1.525 1.787 2.58.574.508 1.695 1.526 2.493 2.26a88.511 88.511 0 003.074 2.673 93.82 93.82 0 013.083 2.672 2732.54 2732.54 0 016.655 6.11c1.182 1.091 1.842 1.32 2.282.79zm31.011-1.076c.05-.342-.493-.913-2.435-2.567-3.896-3.318-4.57-3.886-6.294-5.3a103.26 103.26 0 01-2.547-2.16c-1.347-1.202-1.837-1.596-2.872-2.31-.506-.349-1.105-.841-1.331-1.094-.226-.252-.828-.74-1.336-1.085a15.528 15.528 0 01-1.745-1.423c-.893-.868-1.605-.972-1.708-.249-.065.45.92 1.403 4.07 3.942.847.684 2.558 2.084 3.802 3.11a242.532 242.532 0 002.775 2.269c1.2.935 3.658 2.994 4.42 3.7.452.42 1.053.907 1.335 1.082.283.175 1.102.844 1.82 1.487 1.338 1.198 1.935 1.372 2.046.598zm7.44.027c0-.584-.566-.923-.829-.497-.216.35.13 1.017.528 1.017.185 0 .3-.2.3-.52zm-36.918-.269c.155-.25-.465-1.06-.813-1.06-.413 0-.372.616.063.946.424.322.605.35.75.114zm-7.687-1.187c0-.608.13-.475-5.221-5.321-2.248-2.035-4.598-4.232-5.224-4.882-1.713-1.78-2.155-1.534-1.128.63.77 1.621 1.58 2.584 3.671 4.363.992.843 1.95 1.703 2.129 1.91.179.206 1.135 1.024 2.124 1.816.99.793 1.799 1.504 1.799 1.58 0 .078.251.293.559.48.702.426 1.29.164 1.29-.576zm9.455-.519c0-.793-.52-.983-1.096-.402l-.445.449.5.38c.647.492 1.041.33 1.041-.427zm28.529.128c.041-.29-.41-.832-1.54-1.848-.878-.79-2.252-2.039-3.05-2.774-.8-.735-2.744-2.446-4.32-3.803a440.67 440.67 0 01-4.135-3.597c-1.603-1.428-3.197-2.695-4.384-3.484a45.224 45.224 0 01-1.357-.934c-.524-.387-1.11-.208-1.11.339 0 .453.627 1.088 2.262 2.293 1.116.822 4.552 3.534 5.55 4.38 2.535 2.15 5.054 4.304 5.138 4.395.057.061 1.12.963 2.364 2.004 1.244 1.041 2.631 2.267 3.083 2.725.868.877 1.4.985 1.499.304zm7.34-.374c0-.535-.403-.502-.48.04-.047.333.018.457.206.394.15-.05.274-.245.274-.434zm-34.257-1.133c.572-.44.549-1.324-.037-1.435-.415-.08-1.37.702-1.37 1.12 0 .231.54.68.823.684.056 0 .32-.165.584-.369zm28.125.057c.069-.18-.086-.613-.35-.977-.647-.894-3.375-3.427-5.63-5.227-2.997-2.394-4.419-3.586-5.454-4.573-.534-.509-1.332-1.185-1.774-1.503-.772-.554-2.317-1.891-4.862-4.207-1.014-.923-1.252-1.052-1.599-.866-.922.494-.206 1.722 1.52 2.602.353.181 1.022.663 1.486 1.072.464.409 1.56 1.298 2.437 1.977.877.678 1.727 1.36 1.89 1.514.163.155.685.6 1.16.99.929.763 3.86 3.455 6.707 6.16 2.12 2.014 3.723 3.33 4.081 3.347.145.007.32-.132.388-.31zm-35.492-.585c0-.16-.255-.52-.566-.799-.798-.717-4.072-3.63-5.277-4.696a119.405 119.405 0 01-2.418-2.224c-.772-.732-1.585-1.427-1.806-1.545-.22-.118-1.168-.958-2.105-1.867-3.795-3.679-4.827-4.5-4.647-3.697.077.347 6.811 6.824 9.735 9.364 1.106.96 2.482 2.175 3.057 2.699 3.042 2.768 4.027 3.444 4.027 2.765zm36.76-1.332c.051-.356-.15-.704-.719-1.252a25.644 25.644 0 01-1.306-1.358c-.285-.328-.933-.916-1.44-1.305-.89-.684-1.87-1.563-5.147-4.624-3.395-3.172-4.343-3.993-6.772-5.871-1.39-1.074-2.834-2.214-3.209-2.534-.726-.618-1.37-.615-1.609.008-.153.4.946 1.585 3.071 3.31.791.643 1.782 1.48 2.202 1.862.42.382 1.038.891 1.371 1.131 2.363 1.7 9.485 7.901 11.536 10.046 1.223 1.278 1.897 1.474 2.023.586zm-35.116-.417c0-.25-.82-1.096-2.21-2.283-1.215-1.039-2.44-2.14-2.723-2.45-.687-.749-2.372-2.225-4.826-4.224-2.804-2.286-3.772-3.131-6.449-5.632-1.283-1.198-2.439-2.18-2.569-2.18-.13 0-.266.209-.302.463-.073.512.598 1.577 1.393 2.21.284.226 1.165 1.026 1.958 1.778 1.348 1.277 2.197 2.012 6.684 5.788 2.576 2.168 4.933 4.262 5.688 5.054 1.481 1.555 3.356 2.379 3.356 1.476zm7.2-.024c.265-.497.187-1.883-.112-1.981-.115-.038-.439.355-.72.872-.5.924-.503.946-.11 1.235.53.39.675.371.941-.126zm29.103-1.548c.073-.291.051-.6-.048-.688-.1-.087-1.245-1.12-2.546-2.297-5.032-4.55-6.134-5.517-8.282-7.265-1.221-.993-2.368-2.033-2.55-2.309-.18-.276-.69-.686-1.13-.911-.44-.225-.844-.52-.897-.656-.139-.36-2.845-2.433-3.574-2.74-.522-.22-.668-.211-.931.051-.171.172-.312.396-.312.497 0 .102.832.813 1.848 1.579 4.3 3.24 6.59 5.123 9.028 7.42 4.29 4.04 6.988 6.463 7.639 6.859.338.206.669.513.733.682.197.511.874.364 1.021-.222zm-35.4-.619c.246-.64.116-1.09-.44-1.528-.311-.244-1.213-1.026-2.005-1.739-4.36-3.924-6.225-5.47-6.731-5.583-.311-.07-.566-.258-.566-.42 0-.321-.77-1.094-2.364-2.37-1.338-1.073-4.37-3.863-5.781-5.32-1.948-2.012-2.61-2.087-2.334-.265.203 1.342 1.54 2.672 7.932 7.89a965.57 965.57 0 011.971 1.615c.6.492 1.41 1.14 1.801 1.438.391.3 1.141.937 1.667 1.418.525.48 1.241 1.082 1.591 1.336.35.254 1.53 1.225 2.623 2.158 1.092.932 2.105 1.695 2.249 1.695.144 0 .318-.146.387-.325zm36.672-.949c.136-.136.247-.484.247-.774 0-.41-.444-.918-1.984-2.272-1.091-.959-2.505-2.206-3.142-2.771s-2.258-1.907-3.602-2.98c-1.344-1.075-2.959-2.425-3.59-3a24.926 24.926 0 00-2.38-1.88c-.677-.456-1.464-1.082-1.746-1.39-.728-.793-2.782-2.158-3.246-2.158-.476 0-1.105.65-.906.936.079.114.652.572 1.274 1.018.622.445 2.037 1.552 3.144 2.46 1.107.907 2.593 2.066 3.302 2.574 1.808 1.298 3.178 2.498 7.157 6.27 4.477 4.245 4.893 4.546 5.472 3.967zm-35.15-1.439c.593-.592-.028-2.224-.958-2.52-.49-.155-1.878.432-1.878.795 0 .36 1.845 1.955 2.271 1.965a.899.899 0 00.566-.24zm36.8-1.049c.047-.246-.43-.833-1.417-1.747a110.945 110.945 0 01-2.638-2.53c-.633-.635-1.447-1.306-1.809-1.49-.361-.186-.731-.46-.822-.61-.191-.318-2.917-2.585-4.374-3.638-.552-.398-1.773-1.424-2.713-2.28-2.12-1.93-5.486-4.498-5.895-4.498-.42 0-1.057.61-1.057 1.012 0 .19.625.718 1.46 1.233.802.495 1.657 1.105 1.9 1.355.244.25 1.09.894 1.882 1.433.791.538 1.637 1.201 1.879 1.473s.768.746 1.168 1.054c1.475 1.132 5.39 4.493 6.297 5.403a21.321 21.321 0 002.078 1.778c.63.461 1.508 1.223 1.952 1.692.65.685.929.84 1.423.791.4-.039.64-.19.686-.43zm-35.114-1.582c0-.489-.745-1.293-1.092-1.179-.45.149-.39.92.098 1.262.633.443.994.413.994-.083zm35.932-.342c.04-.27-.109-.561-.383-.753-.748-.524-3.303-2.838-4.611-4.177-.68-.695-1.454-1.374-1.722-1.51-.725-.368-2.655-1.884-3.901-3.065-.605-.572-1.807-1.573-2.673-2.223a51.72 51.72 0 01-2.73-2.213c-2.73-2.431-3.474-2.86-3.633-2.09-.076.371.876 1.573 1.246 1.573.384 0 2.188 1.388 4.126 3.174 1.112 1.024 2.314 2.042 2.673 2.262.8.49 2.523 1.86 3.232 2.569.29.29.983.915 1.542 1.39 3.257 2.773 5.056 4.384 5.548 4.969.616.731 1.19.773 1.286.094zm-41.317-.932c.472-.473.239-.962-.932-1.948-7.505-6.321-9.054-7.702-13.43-11.965-2.142-2.089-3.348-3.123-3.549-3.046-.213.082-.326.506-.375 1.415-.07 1.276-.056 1.313.752 2.133a22.66 22.66 0 001.85 1.632 44.294 44.294 0 011.96 1.632c2.903 2.599 8.04 6.635 8.996 7.067 1.277.577 2.439 1.528 2.996 2.45.549.909 1.212 1.15 1.732.63zm6.577 0c.136-.136.247-.488.247-.781 0-1.115-.939-1.376-1.505-.419-.347.589-.345.624.059 1.028.476.476.843.529 1.2.172zm36.013-.775c0-.222-.22-.523-.49-.668-.269-.145-1.217-.92-2.106-1.724-.89-.804-2.589-2.275-3.776-3.27a132.361 132.361 0 01-3.302-2.856c-.63-.576-1.923-1.648-2.873-2.383-1.517-1.172-3.489-2.788-5.698-4.67-1.319-1.123-2.088-.292-.828.893 1.104 1.04 5.023 4.14 5.648 4.469.318.167 1.318.972 2.223 1.788.904.816 2.17 1.869 2.813 2.34a40.516 40.516 0 012.467 2.015c2.824 2.519 5.22 4.438 5.563 4.454.226.01.36-.133.36-.388zm-40.803-1.033c.137-.222-.144-.516-2.269-2.365-.779-.678-1.928-1.691-2.554-2.25-1.424-1.275-1.65-1.48-7.782-7.067-1.907-1.738-4.744-4.519-6.183-6.062-.911-.976-1.16-1.143-1.376-.923-.209.213-.213.454-.021 1.166.205.759.697 1.338 3.194 3.76 1.624 1.574 3.47 3.245 4.102 3.712a41.25 41.25 0 011.572 1.21c1.465 1.25 5.886 4.75 6.957 5.509.703.497 1.412 1.099 1.576 1.336.453.656 2.136 2.174 2.413 2.176a.48.48 0 00.37-.202zm6.345-.427c.709-.557.722-1.35.029-1.667-.423-.193-.584-.169-.92.134-.606.549-.713 1.107-.3 1.562.448.496.526.494 1.191-.03zm35.646.048c.108-.322-2.24-2.599-4.283-4.154-.877-.667-1.626-1.29-1.665-1.382-.038-.093-.487-.488-.997-.879-2.018-1.545-4.322-3.495-6.912-5.849-2.908-2.642-4.535-3.944-5.017-4.014-.603-.087-.813.014-.813.392 0 .369.856 1.15 3.298 3.006.594.452 1.784 1.379 2.643 2.06.859.68 1.795 1.386 2.081 1.568.286.181 1.18.945 1.985 1.698.805.752 1.82 1.649 2.255 1.992.434.344 1.847 1.612 3.138 2.82 3.016 2.82 4.043 3.477 4.287 2.742zm-40.388-1.334c.2-.52-.342-1.129-3.32-3.74-1.624-1.424-3.289-2.919-3.7-3.323-.412-.403-1.489-1.361-2.393-2.128-1.58-1.34-2.664-2.356-6.96-6.518-1.674-1.621-2.063-1.9-2.64-1.898-2.272.01-1.395 1.19 4.872 6.557 1.357 1.161 2.652 2.317 2.878 2.569.226.251 1.105 1.019 1.953 1.706.848.686 1.819 1.547 2.158 1.913.34.366.861.817 1.16 1.004.3.186 1.452 1.198 2.561 2.249 1.11 1.05 2.158 1.988 2.33 2.084.355.199.94-.053 1.101-.475zm41.631-.622c.055-.476-.097-.727-.808-1.336-.482-.412-1.761-1.631-2.842-2.708-1.082-1.077-2.475-2.387-3.097-2.91-2.916-2.452-3.823-3.196-4.644-3.811-.488-.365-.98-.84-1.097-1.056-.115-.217-.652-.713-1.192-1.103-.54-.39-1.707-1.372-2.595-2.182-.888-.809-1.744-1.471-1.902-1.471-.402 0-1.147.789-1.07 1.134.063.283 2.69 2.574 7.854 6.847 3.075 2.544 9.243 7.954 9.983 8.754.66.715 1.319.64 1.41-.158zm70.624.105c.06-.096-.074-.652-.296-1.236-.222-.584-.404-1.296-.404-1.582 0-.286-.186-.885-.414-1.332-.228-.446-.702-1.607-1.054-2.579-.493-1.364-.879-2.03-1.692-2.917-1.28-1.397-1.977-2.075-2.695-2.617-.434-.327-.615-.745-.89-2.055l-.347-1.643-1.824-.926c-1.044-.53-2.351-1.41-3.057-2.056-.678-.622-1.337-1.168-1.464-1.214-.204-.073-2.6-1.689-3.646-2.457-.337-.248-.487-.183-1.36.591-1.004.89-2.45 1.64-3.16 1.64-.218 0-.742.316-1.164.7-.423.385-1.09.976-1.481 1.313l-.713.614.249 1c.136.55.346 1.467.464 2.04.466 2.244 3.053 4.16 5.216 3.863.501-.069 1.427-.06 2.058.018.928.116 1.147.216 1.147.524 0 .21.283.596.63.859 1.563 1.186 2.403 2.067 3.032 3.182.67 1.186 2.269 2.643 4.008 3.651.597.347.787.378 1 .166.212-.212.073-.445-.733-1.228l-.994-.967.985-.854.986-.855-.845-1.411c-.465-.777-1.592-2.15-2.504-3.051-.913-.902-1.66-1.758-1.66-1.902 0-.425.51-.3 1.028.253.7.744 1.186.67 1.35-.206.162-.863.526-.918 1.255-.188.475.475.519.64.409 1.57-.098.82-.043 1.152.258 1.576.21.295.52.87.69 1.278.228.546.562.864 1.269 1.206.728.352 1.18.793 1.873 1.826.502.748.914 1.5.915 1.671.002.349 1.024 2.144 1.585 2.784.785.897 1.741 1.353 1.99.95zm-9.75-6.912c.262-.28.571-.45.686-.378.121.075.013.287-.258.507-.683.553-.983.462-.428-.13zm-2.255.028c0-.136 2.016-1.37 2.238-1.37.487 0 .19.395-.682.905-.783.459-1.556.69-1.556.465zm-93.643 6.651c.394-.15.527-.347.527-.78 0-1.087-.767-1.391-1.58-.628-.565.531-.587.733-.135 1.233.392.434.475.446 1.188.175zm-5.177-1.113c.636-.483.423-1.068-.72-1.977-.593-.472-1.911-1.627-2.929-2.565-2.963-2.732-3.067-2.807-3.49-2.498-.497.364-.457 1.22.091 1.916.25.319 1.163 1.168 2.028 1.888s1.888 1.644 2.273 2.055c1.307 1.396 2.046 1.713 2.747 1.18zm41.06-1.05c0-.344-.916-1.311-3.436-3.627-1.889-1.736-4.086-3.712-4.882-4.392a91.033 91.033 0 01-2.739-2.452c-.71-.67-1.496-1.357-1.747-1.528-.25-.17-1.276-1.079-2.28-2.018-1.769-1.655-2.485-2.027-2.72-1.412-.18.466.122.832 2.087 2.534 1.013.877 2.258 1.998 2.766 2.491a15.209 15.209 0 001.967 1.564c1.086.696 3.102 2.523 5.93 5.376 2.62 2.642 4.422 4.176 4.755 4.048.164-.063.298-.326.298-.584zm-34.462-.2c.135-.35-.373-.93-.812-.93-.485 0-.606.642-.179.954.495.362.847.353.991-.024zm97.807-.449c.49-.443.475-.917-.05-1.585-.661-.84-2.04-.657-2.04.272 0 .3 1.296 1.653 1.583 1.653.072 0 .3-.153.507-.34zm-102.782-.775c.188-.412.148-.628-.23-1.238-.25-.407-.725-.879-1.053-1.048-.328-.17-.597-.391-.597-.492 0-.1-.355-.444-.788-.765-1.02-.755-3.075-2.533-4.648-4.023-1.499-1.42-1.965-1.518-1.961-.414.003.715.146.897 1.98 2.518 1.087.96 2.578 2.327 3.314 3.037 1.522 1.468 3.302 2.924 3.573 2.924.1 0 .285-.225.41-.499zm6.017.168c.46-.176.404-1.03-.1-1.533-.524-.524-1.014-.228-1.014.615 0 .826.43 1.18 1.114.918zm33.83-1.308c0-.69-.114-.882-.873-1.473-.48-.374-2.354-2.104-4.163-3.845-1.809-1.741-3.797-3.535-4.42-3.986-.62-.45-1.467-1.2-1.88-1.666-.688-.776-.799-.829-1.336-.64-.322.113-.586.304-.586.424s.74.845 1.645 1.61c1.895 1.606 6.233 5.678 9.17 8.609 1.114 1.11 2.118 1.96 2.234 1.889.115-.071.21-.486.21-.922zm-32.103-1.208c.069-.715-.402-1.47-.915-1.47-.15 0-.42.225-.6.5-.364.556-.178 1.158.475 1.543.608.359.97.16 1.04-.573zm-6.373.116c.065-.337-.589-1.093-1.56-1.806-.515-.377-1.897-1.514-5.795-4.768-2.42-2.02-3.206-2.572-3.414-2.4-.381.317-.026 1.011.796 1.553.362.238 1.75 1.372 3.086 2.518 1.335 1.146 2.498 2.084 2.583 2.084.086 0 .936.74 1.89 1.644 1.702 1.615 2.276 1.894 2.414 1.175zm1.245-1.537c.44-.822-.444-1.887-2.851-3.434-.51-.327-1.388-1.022-1.953-1.546a26.332 26.332 0 00-2.081-1.709c-.58-.416-1.18-.936-1.336-1.156-.253-.356-.81-.516-1.568-.449-.447.04-.278.811.261 1.195 1.586 1.13 3.885 3.018 5.237 4.302 3.583 3.399 3.87 3.585 4.291 2.797zm37.231-.498c0-.814-.1-.958-1.912-2.723-2.488-2.425-3.616-3.466-5.674-5.239-1.449-1.248-1.77-1.438-2.242-1.325-.74.177-.86.257-.86.576 0 .285 1.788 1.913 3.7 3.37.621.473 2.286 2.057 3.7 3.52 1.413 1.464 2.73 2.666 2.929 2.671.287.008.36-.164.36-.85zm-30.871-.105c.074-.519-.803-1.206-1.296-1.017-.461.177-.375.886.152 1.256.6.42 1.063.324 1.144-.24zm1.272-1.231c0-.466-.806-1.298-1.257-1.298-.802 0-.696.74.182 1.286.718.445 1.075.449 1.075.012zm-6.413-.505c.05-.428-.086-.632-.653-.983-.394-.243-.746-.514-.782-.602-.037-.087-.621-.566-1.3-1.063-.678-.497-1.768-1.44-2.421-2.094-.983-.985-1.31-1.19-1.89-1.19-1.441 0-1.212.508 1.067 2.364 3.974 3.237 5.3 4.224 5.6 4.167.175-.033.345-.302.38-.6zm-15.503.273c.24-.388-.861-2.767-1.687-3.644-.938-.998-1.161-1.072-1.82-.61-.428.3-.435.288-.325-.53.107-.8.06-.89-1.093-2.054-1.039-1.05-1.31-1.217-1.965-1.217-1.955 0-1.89.632.285 2.726.933.899 1.904 1.715 2.158 1.813.255.098.463.305.463.46 0 .335 3.242 3.223 3.619 3.223.144 0 .308-.075.365-.167zm23.498-1.201c.088-.228-.085-.534-.524-.925-1.211-1.083-2.249-.487-1.15.661.637.665 1.47.796 1.674.264zm-6.424-.258c.11-.178-.706-.96-4.19-4.02-1.544-1.358-2.204-1.614-2.68-1.04-.3.361.282.958 2.667 2.73.848.63 1.905 1.455 2.35 1.832.78.662 1.613.886 1.853.498zm33.784-1.305c-.16-.91-.323-1.186-1.05-1.781-.474-.387-1.544-1.386-2.377-2.22-1.447-1.447-1.554-1.514-2.364-1.455-.7.051-.86.143-.914.525-.037.254.033.462.153.462.121 0 1.57 1.345 3.22 2.99 3.322 3.309 3.682 3.469 3.332 1.48zm-25.695.423c.93-.93-1.05-2.783-2.029-1.898-.511.463-.51.475.235 1.379.65.787 1.33.984 1.794.52zm-6.99-1.017c.042-.218-.34-.623-1.066-1.13-.622-.435-1.173-.952-1.225-1.15-.052-.198-.265-.42-.473-.493-.209-.073-.683-.418-1.054-.767-.544-.51-.742-.59-1.028-.41-.194.122-.353.325-.353.45 0 .124.962 1.067 2.138 2.094 2.135 1.865 2.906 2.22 3.061 1.406zm8.881-.99c0-.594-1.188-1.857-1.746-1.857-.448 0-.72.344-.72.909 0 .372 1.452 1.352 2.002 1.352.325 0 .464-.121.464-.404zm-7.605-.108c0-.375-1.259-2.057-2.113-2.825-.854-.767-1.305-.872-1.944-.453l-.542.355.519.433 1.928 1.615c1.39 1.165 2.152 1.475 2.152.875zm-19.858-.224c.25-.652.099-1.436-.394-2.039-.408-.499-.571-.574-.854-.396-.193.12-.435.476-.54.788-.164.494-.1.66.491 1.27.746.77 1.106.874 1.297.377zm29.189-.971c.192-.315.085-.496-.698-1.176-.983-.855-1.579-1.02-1.78-.495-.173.45.241 1.136 1.019 1.686.745.528 1.128.524 1.459-.016zm21.297-.95c0-1.18-2.037-2.69-2.39-1.77-.148.387 1.55 2.371 2.03 2.371.26 0 .36-.165.36-.601zm-52.793-.355c.454-.41.467-.568.08-.955-.363-.363-1.333-.218-1.502.224-.071.185.071.468.348.692.571.462.605.464 1.074.039zm33.43-.112a.99.99 0 00.246-.61c0-.457-.998-1.6-1.813-2.075-.566-.33-.65-.332-.945-.036-.18.178-.325.641-.325 1.028 0 .589.139.804.853 1.321.901.653 1.575.78 1.983.372zm-17.87-.847c2.288-.445 3.194-.897 3.279-1.633.09-.794-.513-2.754-.894-2.9-.266-.102-1.822.394-3.488 1.114-1.489.642-2.165.915-2.98 1.204-1.101.39-1.276.969-.614 2.04.418.678.437.685 1.7.598.702-.048 2.051-.239 2.997-.423zm6.413-.073c.26-.683.152-.977-.516-1.415-.487-.319-.562-.32-1.04-.007-.67.44-.651 1.013.052 1.537.776.58 1.254.543 1.504-.114zm18.24-.19c.08-.568-1.265-1.775-1.879-1.687-.7.1-.63.685.18 1.495.836.836 1.594.922 1.699.191zm-4.481-.862c0-.49-2.487-2.71-3.039-2.713-.545-.003-.818.523-.521 1.002.256.413 2.08 1.844 2.635 2.066.527.211.925.058.925-.355zm6.458-.168c.179-.068.325-.293.325-.5 0-.417-2.927-3.075-3.387-3.075-.16 0-.44-.255-.625-.568-.185-.312-.8-.912-1.369-1.332-.832-.616-1.109-.724-1.423-.555-.215.115-.39.373-.39.573 0 .37 3.081 3.321 3.467 3.321.115 0 .337.183.493.406.375.535 2.038 1.85 2.343 1.853a1.92 1.92 0 00.566-.123zm-18.485-.284c.208-.335-.574-1.238-1.024-1.183-.539.067-.66.773-.19 1.116.437.32 1.038.353 1.214.067zm-35.456-1.047c0-.415-.089-.604-.257-.548-.142.047-.234.147-.206.223.028.075.051.322.051.548 0 .226.093.411.206.411.113 0 .206-.285.206-.634zm49.333-.058c0-.522-.8-1.44-1.627-1.868-.321-.166-.634-.432-.695-.59-.188-.49-.911-.542-1.315-.093-.364.404-.344.438.964 1.634 1.813 1.658 2.673 1.953 2.673.917zm61.509-.145c2.04-.677 4.679-2.414 4.679-3.08 0-.187-.84-1.58-1.866-3.094-1.027-1.514-2.021-3.007-2.21-3.317-.189-.31-.403-.564-.476-.565-.072 0-.674.319-1.336.71-2.069 1.221-5.262 2.823-6.548 3.285-1.754.629-1.74.946.14 2.946.827.88 1.94 2.083 2.472 2.674.944 1.047.994 1.072 2.104 1.072.718 0 1.837-.232 3.04-.631zm-53.946-.221c.038-.202-.538-.932-1.419-1.8-1.537-1.512-2.12-1.754-2.738-1.136-.427.427-.245.736 1.3 2.21 1.127 1.075 1.326 1.186 2.022 1.128.52-.043.792-.174.835-.402zm-19.81-.285c.076-.304.357-.608.673-.728.602-.229 1.296-.939 1.296-1.327 0-.138-.122-.353-.271-.477-.208-.172-.6.022-1.66.82-1.564 1.178-1.802 1.55-1.25 1.954.592.432 1.066.337 1.212-.242zm22.22-.513c.296-.479-2.084-3.035-3.215-3.454-.555-.205-1.003-.107-1.003.222 0 .21 2.32 2.962 2.771 3.286.313.226 1.297.188 1.447-.054zm5.996-.11c.126-.38-.855-1.631-1.278-1.631-.625 0-.61.694.031 1.363.566.59 1.101.705 1.247.267zm-2.608-.482c0-.24-.757-1.048-1.943-2.076-1.069-.927-2.089-1.907-2.266-2.178-.544-.829-1.775-.502-1.435.381.054.142.48.58.946.977.466.395 1.406 1.297 2.09 2.004 1.033 1.069 1.356 1.284 1.924 1.284.536 0 .684-.085.684-.392zm-22.002-2.06c.16-.3.133-.476-.11-.72-.432-.43-.622-.407-.996.127-.231.33-.255.52-.09.719.33.396.951.33 1.196-.126zm11.195-.337c.178-.178.323-.443.323-.589 0-.344-1.951-2.172-2.319-2.172-.355 0-1.244.931-1.146 1.2.132.361 2.12 1.869 2.474 1.876.19.004.49-.138.668-.315zm10.395-.257c0-.292-3.134-3.318-3.318-3.204-.402.248-.098.715 1.308 2.008 1.358 1.248 2.01 1.637 2.01 1.196zm-19.85-.997c.072-.189.017-.413-.122-.5-.33-.204-.994.158-.994.542 0 .422.951.386 1.115-.042zm11.628-.728c0-.474-2.116-2.629-2.581-2.629-.397 0-.752.565-.619.985.183.574 2.153 2.099 2.714 2.099.365 0 .486-.114.486-.455zm-9.313-.911c.08-.207-.018-.447-.254-.619-.325-.238-.428-.236-.678.014-.162.162-.238.44-.17.619.164.427.937.417 1.102-.014zm16.919-.476c0-.22-.373-.793-.828-1.272-.765-.805-.852-.844-1.163-.533-.311.31-.292.394.251 1.118.692.92.898 1.083 1.38 1.087.221.002.36-.152.36-.4zm-5.816-.353c.094-.245-.204-.657-1.044-1.438-1.215-1.131-1.742-1.32-2.188-.783-.314.379.032.827 1.442 1.871 1.026.76 1.59.87 1.79.35zm-9.297-1.016c.737-.738-.158-1.487-.936-.784-.572.518-.516 1.117.104 1.117.274 0 .649-.15.832-.333zm9.35-2.039c-1.457-1.466-2.227-1.854-2.088-1.052.075.433.446.82 2.006 2.09.84.685 1.232.89 1.393.73.16-.16-.209-.658-1.311-1.768zm5.968.317c0-.513-.669-.894-.996-.566-.562.562-.053 1.524.617 1.165.209-.111.38-.381.38-.6zm-13.434-.106c.166-.432-.32-.955-.818-.88-.545.08-.645.447-.234.859.418.417.896.427 1.052.021zm8.501-1.495c0-.496-3.826-3.818-4.222-3.666-.483.185-.36.433.676 1.362.537.482 1.423 1.28 1.969 1.774 1.054.954 1.577 1.13 1.577.53zm-6.606-.192c.219-.39-.118-1.226-.681-1.694-.274-.227-.392-.21-.733.098-.52.47-.518 1.017.004 1.538.504.505 1.145.531 1.41.058zm12.675.14c.168-.271-.269-.814-.653-.814-.16 0-.347.148-.416.329-.202.524.772.965 1.07.484zm-11.208-2.047c0-.387-.523-.7-.84-.503-.467.288.04 1.177.557.978.156-.06.283-.274.283-.475zm3.7-1.725c0-.675-.667-1.462-1.098-1.297-.472.181-.426.746.106 1.312.576.614.992.607.992-.015zm1.427-28.976c-.018-1.265-.305-2.792-.574-3.061-.397-.398-.587.063-.721 1.749-.112 1.412-.08 1.642.277 2 .609.608 1.032.322 1.018-.688zM70.113 55.633c1.074-.172 1.964-.328 1.977-.347.014-.018.823-.948 1.798-2.066.975-1.118 2.014-2.526 2.309-3.13.485-.99.522-1.235.39-2.546a24.77 24.77 0 00-.503-2.89c-.329-1.324-.277-1.821.16-1.55.155.095.284.729.796 3.927.14.872.233 1.027.617 1.027.37 0 .687-.45 1.737-2.466l1.284-2.467.113-4.111.113-4.111.617-.013c1.349-.028 1.542-.088 1.542-.475 0-.212.195-.827.434-1.367.436-.985.594-2.328.899-7.638.125-2.181.11-2.31-.292-2.525-.305-.163-.542-.165-.838-.006-.728.39-1.979 2.181-2.243 3.213-.406 1.584-.584 1.905-1.14 2.044-.898.226-1.137-.009-1.137-1.113 0-1.374-.556-4.459-.936-5.193-.227-.439-.253-.706-.099-.994.33-.618.036-1.032-.833-1.17-.438-.07-.949-.24-1.136-.377-.302-.22-.26-.298.38-.694.396-.244.894-.445 1.107-.445.212 0 .803-.278 1.311-.616.51-.338 1.15-.616 1.423-.616.274 0 .665-.152.87-.337.42-.38.521-.242.628.85.037.384.176.617.368.617.252 0 .298-.284.252-1.542-.03-.848-.2-2.143-.374-2.878-.435-1.832-2.038-6.495-2.445-7.117-.353-.538-1.472-1.308-1.904-1.31-.404 0-.3.49.166.781.336.21.41.438.36 1.113l-.063.85-1.542.474c-.848.26-1.847.475-2.22.478-1.253.007-2.3.816-3.087 2.384-.365.727-1.116 1.467-2.05 2.02-.968.572 1.493-4.33 3.001-5.977.644-.703 1.4-1.553 1.679-1.89.28-.336.766-.762 1.08-.948.598-.353.748-.822.313-.978-.142-.051-.951-.082-1.8-.07-1.453.023-1.61.073-2.774.874-.678.468-1.735 1.013-2.348 1.213-.613.2-1.288.537-1.501.75-.38.38-.375.402.24 1.102.348.397.628.949.628 1.238 0 .582-1.01 1.724-1.525 1.724-.179 0-.394.012-.479.025-.085.014-.34-.333-.565-.77-.57-1.102-1.215-1.154-2.16-.174-.653.676-.686.766-.37 1 .192.14.562.66.823 1.152.618 1.17 1.066 1.346.879.348l-.136-.723.887.034c.804.03.93.11 1.363.856.39.673.454 1.005.354 1.834-.161 1.336-.346 1.638-1.273 2.08-1.288.613-3.108.901-5.735.909-2.97.009-3.124-.072-4.174-2.179-1.04-2.087-1.044-2.096-1.044-2.476 0-.202.253.038.594.562.858 1.322 2.364 2.943 2.642 2.847.274-.095-.621-2.5-.974-2.618-.116-.038-.602-.396-1.082-.794-.952-.79-1.686-1.985-1.507-2.453.098-.255.202-.25.745.03.347.18.799.272 1.005.207.39-.124 2.484-2.413 2.48-2.712-.001-.219-2.33-.95-2.73-.857-.166.038-1.103.971-2.082 2.074-1.096 1.233-1.934 2.004-2.18 2.004-.458 0-.675.624-.575 1.651.091.93.574 1.061.601.165.011-.377.083-.907.158-1.178.112-.397.211-.21.519.976.21.807.647 1.888.972 2.4.326.514.592 1.01.592 1.104 0 .094.194.417.43.719.465.59.401 1.152-.13 1.152-.181 0-.768-.37-1.304-.822-.537-.453-1.043-.823-1.125-.823-.083 0-.123.344-.09.764.072.914-.428 1.155-1.004.483-.562-.657-.949-.552-.78.213.076.35.03 1.029-.104 1.507-.177.632-.186 1.18-.032 2.015.155.84.147 1.319-.031 1.791-.218.576-.18.764.35 1.742.447.827.56 1.254.464 1.738-.07.353-.037.882.074 1.175.112.293.346 1.227.521 2.075.176.848.531 2.297.79 3.218.26.922.677 2.463.927 3.424.942 3.617.885 3.476 2.172 5.447.443.678.923 1.683 1.066 2.233.144.55.34 1.105.437 1.234.097.128.342.695.544 1.26.892 2.49 2.781 5.113 4.739 6.583.565.425 1.193.944 1.395 1.154.202.21.71.572 1.13.805.42.232 1.133.648 1.586.924.902.552.94.551 4.625-.04zm-4.244-4.514c-.415-.143-.946-.45-1.18-.684-.43-.43-.266-.571.27-.232.186.118.565.082 1.028-.097.404-.156 1.415-.374 2.248-.484 1.045-.138 1.654-.332 1.966-.625.249-.234.562-.425.696-.425.494 0 .218.554-.733 1.472-.855.824-1.136.966-2.258 1.138-.942.144-1.482.128-2.037-.063zm-3.722-2.7c-.14-.047-.257-.356-.257-.686 0-.699.318-.765 1.281-.267 1.005.52 4.671.304 6.973-.41.978-.304 1.892-.688 2.03-.854.345-.417.761-.378 1.015.096.413.771.273 1.104-.408.968-.394-.079-1.499.11-3.031.518-1.98.527-2.855.65-4.879.682-1.357.023-2.582.001-2.724-.046zm5.716-3.355c-1.398-.632-1.432-.683-1.128-1.683.146-.48.32-1.127.387-1.438.164-.769.484-.71.846.154.223.535.425.72.786.72.626 0 .897-.341.982-1.234.043-.448.177-.72.357-.72.22 0 .3.405.34 1.707.047 1.503 0 1.765-.39 2.193-.638.7-1.144.77-2.18.301zm-7.411.039c0-.355.61-1.635.935-1.96.379-.378.709-.26.709.255 0 .502-.986 1.885-1.343 1.885-.166 0-.301-.08-.301-.18zm3.545-1.395c-.395-.16-.304-.625.145-.743.22-.058.568.022.77.178.323.246.33.309.062.489-.332.222-.57.24-.977.076zm12.799-3.282c-.2-.2-.277-.47-.191-.668.079-.183.269-.795.422-1.36.374-1.38.675-2.11 1.256-3.048.412-.665.535-.746.8-.525.383.317.328.66-.55 3.47-.787 2.518-1.04 2.829-1.737 2.131zm-10.27-.333c-.043-.141-.131-1.374-.195-2.739-.108-2.29-.081-2.551.342-3.381.253-.495.566-.932.696-.972.13-.04.639.31 1.13.777l.892.848-.64.55c-.804.69-.952 1.117-.716 2.061.102.412.24 1.12.304 1.571.108.755.066.852-.51 1.182-.739.424-1.193.46-1.303.103zm-7.565-3.585c-.39-.102-.484-.579-.154-.783.359-.222.223-.699-.296-1.039-.474-.31-.555-.298-1.438.22-.814.477-.953.506-1.063.219-.188-.491.239-.878 1.487-1.345 1.268-.474 1.985-.52 2.935-.19.581.203.644.297.533.803-.071.321-.03.633.091.708.512.316.202.883-.663 1.213-.484.185-.923.325-.976.312a63.489 63.489 0 01-.456-.118zm3.451-1.61c-.777-1.327-.462-2.054.463-1.068.48.51.697 1.8.325 1.933-.128.045-.482-.344-.788-.865zm9.962.103c0-.469.708-.818 1.658-.818.376 0 .603.107.603.285 0 .417-.918.949-1.637.949-.49 0-.624-.09-.624-.416zm-.167-1.462c-.729-.36-.976-.397-1.397-.205-.655.298-.697.294-.697-.073 0-.726 3.32-1.41 4.304-.886.695.37.632.605-.308 1.137-.986.559-.832.557-1.902.027zm-18.744-.563c0-.69.19-1.19.907-2.39l.491-.822 1.922.015c2.747.021 3.764.212 4.059.764.133.25.373.682.532.96.57.997-.442 1.332-2.177.72-.492-.173-1.542-.407-2.333-.52-1.8-.255-2.466-.026-2.79.957-.305.923-.611 1.08-.611.316zm14.385-1.22c-.697-.565-.395-1.121.88-1.622 1.885-.741 3.433-1.244 5.211-1.694.765-.193 1.312.063 1.312.615 0 .426.692.573.925.195.263-.424.696-.18.928.522.32.97-.015 1.421-.916 1.23-1.717-.365-2.365-.346-3.544.104-.97.37-3.646 1.02-4.204 1.022-.073 0-.339-.168-.592-.373zm14.872-2.008c-.069-.178-.343-.407-.61-.509-.402-.152-.486-.33-.486-1.025 0-.896.715-2.553 1.545-3.58.699-.865.88-.484.316.664-1.052 2.142-1.068 2.215-.622 2.782.232.296.405.83.405 1.254 0 .754-.324.999-.548.414zm-7.377-2.845c-.312-.228-.34-.472-.216-1.843.227-2.504.496-2.79 1.177-1.25.362.82.385 1.067.183 2.038-.245 1.181-.567 1.478-1.144 1.055zm1.071-10.242c-.903-.188-.986-.253-.9-.706.137-.717-.304-1.044-1.63-1.21-.857-.106-1.456-.052-2.28.208-.614.193-1.164.304-1.223.245-.199-.199 1.022-1.667 2.179-2.621.632-.522 1.612-1.18 2.178-1.465 1.16-.584 2.67-.904 2.854-.605.163.263-.195.513-1.348.938-.96.354-1.572.85-1.339 1.083.068.068.505-.029.97-.215.467-.187 1.398-.397 2.071-.467l1.224-.128-.227.595c-.27.707.055 1.93.657 2.474.209.19.38.452.38.584 0 .496-1.664 1.586-2.323 1.522a21.28 21.28 0 01-1.243-.232zm-23.979 22.25c0-.213-.082-.438-.183-.5-.1-.062-.345-.784-.543-1.605-.593-2.457-1.919-4.628-2.654-4.346-.39.15-.392.303-.032 1.658.258.968 2.008 4.177 2.752 5.045.355.415.66.299.66-.252zm-1.8-6.902c.065-.065-.167-.597-.516-1.182l-.912-1.526c-.32-.536-1.188-.624-1.374-.14-.189.492.298 1.242 1.394 2.148.997.823 1.19.919 1.408.7zm.456-18.56c-.232-.232-.431.407-.33 1.057l.102.664.173-.802c.095-.441.12-.855.055-.92zm-2.017.025c-.099-1.154-.568-1.322-1.123-.401-.337.56-.333.586.167.972.845.651 1.05.529.956-.571zm9.733.61c0-.496-.572-1.278-.936-1.278-.44 0-.36.626.15 1.168.535.57.786.605.786.11zm1.233-.75c0-.405-.462-1.145-.714-1.145-.41 0-.399.387.027.858.312.345.688.501.688.286zm1.324-.374c-.277-.898-.734-1.618-.976-1.538-.446.149-.374.704.175 1.356.636.757 1.004.84.801.182zm.938-1.37c0-.606-.22-1.045-.524-1.045-.432 0-.53.334-.268.91.282.618.792.705.792.134zm1.636-5.516c-.004-.198-.412-.819-.907-1.38l-.899-1.02-.94 1.02c-1.293 1.402-1.249 1.536.464 1.392.946-.08 1.457-.042 1.554.115.224.363.737.273.728-.127zm2.02-2.957c.075-.39-.553-.692-.84-.404-.297.297.008.883.418.804.197-.038.387-.218.422-.4zm-46.206 270.22c-3.2-.709-4.028-.989-6.048-2.043-3.124-1.631-4.104-2.316-6.368-4.45-2.424-2.284-4.963-5.915-5.372-7.682a5.827 5.827 0 00-.409-1.13c-.46-.892-1.125-3.268-1.125-4.026 0-.401-.085-.887-.188-1.08-.591-1.105-.015-7.938.83-9.846.212-.48.386-.953.386-1.054 0-.232.9-2.2 1.376-3.008.2-.34.68-1.172 1.065-1.85.386-.678 1.041-1.603 1.456-2.055a22.698 22.698 0 001.317-1.594c.31-.425 1.078-1.118 1.707-1.542 3.464-2.332 4.203-2.791 5.542-3.445.807-.394 1.61-.717 1.787-.717.176 0 .37-.082.432-.182.11-.176 1.146-.47 4.12-1.168 1.124-.263 1.966-.307 3.905-.2 4.557.248 7.329 1.06 11.723 3.431 2.348 1.267 5.824 4.59 7.38 7.057.936 1.482 2.357 4.417 2.678 5.53.474 1.64.887 4.981 1.045 8.452.116 2.556.082 3.05-.305 4.42-.24.847-.509 1.929-.598 2.403-.09.475-.263.984-.385 1.131-.123.148-.423.777-.667 1.399-1.23 3.13-4.746 7.45-7.63 9.371-.747.498-1.416.906-1.486.906-.07 0-.633.324-1.252.72-.618.395-1.293.719-1.499.719-.205 0-1.093.277-1.972.615-2.245.865-3.5 1.07-7.026 1.146-2.149.047-3.488-.023-4.42-.229zM26.8 271.8c1.94-.236 5.152-1.193 6.22-1.853.36-.223.765-.405.899-.405.556 0 3.73-2.326 5.286-3.873 1.912-1.901 3.882-4.704 4.576-6.508.26-.678.641-1.65.846-2.158 1.39-3.453 1.424-10.125.071-13.978-.637-1.814-1.578-3.7-1.847-3.7-.372 0-.156 1.163.35 1.887.612.875 1.334 7.46 1.01 9.213-.18.969-.161 1.166.128 1.378.333.244.266.883-.093.883-.101 0-.19.5-.195 1.113-.005.611-.11 1.299-.232 1.528-.123.229-.223.676-.223.995 0 .318-.308 1.088-.684 1.711-.376.623-.851 1.573-1.056 2.11-.393 1.027-2.361 3.479-3.724 4.636-1.498 1.272-4.02 3.1-4.47 3.239-.245.075-1.219.496-2.163.933-.943.438-1.802.796-1.908.796-.106 0-.416.147-.688.325-.562.368-3.441.6-7.404.595-1.996-.002-2.76-.094-4.008-.48-2.103-.652-2.879-.763-2.875-.41.003.305 2.361 1.266 4.005 1.63 1.44.319 5.242.76 5.859.68.282-.037 1.327-.166 2.32-.287zm-9.596-19.405c.044-1.008.13-1.881.19-1.941.06-.06.39.233.734.65.344.419.758.76.92.76.352 0 .362-.15.066-1-.125-.359-.17-.876-.102-1.15.115-.46.176-.482.757-.28.833.29 1.246-.052.739-.613-.65-.718-.323-1.068.996-1.068.88 0 1.098-.339.418-.649-.29-.131-.526-.313-.526-.404 0-.09-.196-.347-.436-.57l-.436-.407.437-.555.437-.556-.51-.264c-.28-.146-.705-.295-.946-.331l-.437-.067.432-.546c.237-.3.432-.601.432-.668 0-.227-1.038-.123-1.754.176-.736.307-.947.152-.405-.298.17-.14.309-.386.309-.545 0-.5-.583-.542-1.424-.103l-.81.422-.133-.607c-.133-.608-.749-.847-1.026-.399-.07.114-.406.351-.746.527-.467.242-.687.263-.9.087-.196-.163-.397-.17-.676-.02-.569.304-1.626 1.557-1.784 2.115-.074.262-.285.77-.469 1.13-.272.534-.288.753-.088 1.192.134.295.244.743.244.996 0 .252.135.65.299.884.17.244.324 1.032.36 1.844.07 1.63.394 1.856 1.084.759.229-.363.481-.664.562-.668.08-.004.172.755.205 1.688.047 1.343.124 1.695.368 1.695.193 0 .33-.23.365-.616.031-.34.232-1.033.446-1.542.215-.509.443-1.093.508-1.298.181-.577.481-.23.633.734.076.48.219 1.196.317 1.592.099.395.233.98.299 1.298.09.44.22.563.544.514.386-.06.433-.234.507-1.898zm-1.974.382c0-.176-.093-.263-.206-.193-.113.07-.205.214-.205.32 0 .107.092.194.205.194.113 0 .206-.145.206-.32zm5.55-1.324a.206.206 0 00-.206-.205.206.206 0 00-.205.205c0 .113.092.206.205.206a.206.206 0 00.206-.206zm1.732-.182c.062-.1-.016-.29-.175-.421-.32-.266-.648.04-.427.398.157.254.453.265.602.023zm1.145-1.355c0-.35-1.558-1.212-1.857-1.028-.304.188-.239.47.213.92.49.49 1.644.565 1.644.108zm14.927-8.277c.172-.672.21-1.252.1-1.541-.31-.819-.488-2.623-.26-2.623.116 0 .516.555.889 1.234.82 1.493 1.302 1.65 1.098.36-.076-.481-.36-1.309-.631-1.84-.272-.532-.422-1.011-.335-1.065.363-.224 1.524.595 1.906 1.343.222.435.494.79.605.79.37 0 .206-.54-.313-1.027-.282-.266-.514-.603-.514-.75 0-.469-3.534-3.852-5.217-4.995-2.08-1.413-5.28-2.754-7.63-3.198-3.348-.632-7.287-.48-10.586.411-.998.27-1.312.86-.41.775 3.146-.3 8.253.033 10.597.689 1.193.334 3.161 1.534 3.475 2.12.117.218.606.681 1.087 1.03.48.347.873.708.873.802 0 .094.465.75 1.033 1.458 1.216 1.514 1.534 2.098 1.729 3.171.079.437.375 1.025.658 1.308.61.61.897 1.295.897 2.14 0 1.052.63.659.949-.592zm-18.819-.265c.562-.301.505-.815-.09-.815-.548 0-1.057.484-.854.813.168.271.44.272.944.002zm-6.424-.456c.047-.243-.061-.36-.332-.36-.45 0-.937.475-.715.696.26.261.977.031 1.047-.336zm3.739-.05c.204-.247.204-.372 0-.618-.514-.619-1.246-.145-.954.617.065.17.249.308.408.308.16 0 .405-.138.546-.308zm-1.35-10.787c.488-.186.757-.828.347-.828-.388 0-1.67.634-1.67.825 0 .26.645.26 1.323.002zm136.176-123.039c-.518-.167-1.327-.633-1.798-1.037-.954-.816-1.163-1.462-.395-1.22 1.754.552 3.92.294 7.734-.922 1.12-.357 3.215-.786 5.008-1.025 3.626-.484 4.474-.512 4.474-.149 0 .644-.682 1.162-2.107 1.602-.82.253-1.63.53-1.799.615-.767.385-3.521 1.436-4.801 1.832-1.848.572-5.013.724-6.316.304zm-20.79-23.13c-.777-1.027-2.332-4.225-2.691-5.535-1.115-4.069-1.442-5.494-2.004-8.706a14.893 14.893 0 00-.385-1.644c-.116-.356-.302-1.249-.413-1.984a29.703 29.703 0 00-.596-2.775c-.537-1.97-.725-3.186-.492-3.186.428 0 1.131 2.305 1.7 5.575.092.523.35 1.586.576 2.364.39 1.352.818 3.096 1.303 5.32.298 1.365 1.721 5.928 2.212 7.091 1.112 2.636 1.49 3.689 1.412 3.925-.053.158-.297-.017-.621-.445zm2.505-9.698c-.504-.254-.89-.555-.857-.668.033-.113 1.05-.451 2.261-.751 3.275-.813 6.232-1.996 8.368-3.349.565-.358 1.14-.718 1.276-.8.155-.094.367.082.569.471.675 1.306-.468 2.632-3.615 4.191-2.866 1.42-6.227 1.801-8.002.906z"/></svg>